<?xml version="1.0" encoding="UTF-8" standalone="no"?><!DOCTYPE svg PUBLIC "-//W3C//DTD SVG 1.1//EN" "http://www.w3.org/Graphics/SVG/1.1/DTD/svg11.dtd"><svg width="100%" height="100%" viewBox="0 0 214 186" version="1.1" xmlns="http://www.w3.org/2000/svg" xmlns:xlink="http://www.w3.org/1999/xlink" xml:space="preserve" xmlns:serif="http://www.serif.com/" style="fill-rule:evenodd;clip-rule:evenodd;stroke-linejoin:round;stroke-miterlimit:2;"><g><path id="Background-31" d="M0.117,128.885c13.995,-56.036 68.524,-69.445 127.922,-101.211c8.921,-4.771 45.379,-9.84 56.423,0c27.116,24.161 53.234,127.724 -9.499,148.547c-14.006,4.649 -46.245,9.145 -80.353,9.49c-57.198,0.578 -97.062,-5.949 -94.493,-56.826Z" style="fill:#f2f5f8;fill-rule:nonzero;"/><g id="Person-15"><path id="Shape-315" d="M153.771,18.557c-8.653,12.427 -14.607,28.966 -29.771,28.528c-9.591,-0.277 -16.015,-10.225 -14.295,-25.382c2.236,-19.705 21.842,-24.957 34.21,-19.899c9.621,3.932 13.21,11.934 9.856,16.753Z" style="fill:#37474f;fill-rule:nonzero;"/><path id="Shape-317" d="M116.412,32.746c-2.316,12.511 16.213,16.066 21.606,16.28c6.688,0.265 14.062,-17.403 17.034,-29.046c0.572,-2.072 0.596,-4.257 0.069,-6.34c-5.006,-0.657 -7.619,3.543 -11.482,3.381c-8.9,-0.374 -16.988,-5.081 -17.376,-4.536c-4.002,5.576 -3.613,3.222 -6.87,9.01c-1.04,1.848 -7.739,-2.951 -7.814,4.494c-0.045,4.152 5.32,4.121 4.833,6.757Z" style="fill:#ffe0b2;fill-rule:nonzero;"/><path id="Shape-318" d="M146.567,136.888l8.098,-5.254l-5.457,-32.85c-0.189,-8.566 -2.927,-27.235 -2.927,-27.235l-18.202,0.609c0,0 4.422,24.917 6.039,31.53c2.266,9.265 12.449,33.2 12.449,33.2Z" style="fill:#ffe0b2;fill-rule:nonzero;"/><path id="Shape-319" d="M150.089,181.524l-0.596,-3.213l-49.473,-35.915l30.826,-1.076l41.783,13.006c2.616,0.814 4.445,3.204 4.547,5.942l0.555,14.902c-0.903,0.388 -1.825,0.738 -2.768,1.051c-5.667,1.881 -14.32,3.737 -24.874,5.303Z" style="fill:#777dd6;fill-rule:nonzero;"/><path id="Shape-312" d="M39.601,181.569c-0.168,-0.934 -0.068,-1.788 0.39,-2.464c4.874,-7.193 17.102,-26.356 17.102,-40.505c0,-12.96 -21.445,-60.242 -25.523,-69.116c-0.459,-0.977 -0.624,-2.068 -0.475,-3.137c1.962,-13.185 12.63,-21.318 19.355,-21.318l70.775,0c3.095,0.001 3.474,112.089 1.135,139.511c-8.867,0.656 -18.236,1.075 -27.75,1.171c-21.121,0.213 -39.879,-0.542 -55.009,-4.142Z" style="fill:#69964b;fill-rule:nonzero;"/><path id="Shape-314" d="M46.561,175.254l71.752,0c4.36,0 7.948,3.588 7.948,7.948c0,0.351 -0.023,0.698 -0.068,1.038c-9.981,0.827 -20.687,1.361 -31.583,1.471c-21.483,0.217 -40.521,-0.568 -55.783,-4.329c0.831,-3.495 4,-6.128 7.734,-6.128Z" style="fill:#69964b;fill-rule:nonzero;"/><path id="Shape-313" d="M44.396,182.594c0.113,-0.252 0.244,-0.498 0.394,-0.733c4.874,-7.628 19.25,-31.401 19.25,-46.407c0,-15.189 -26.185,-74.833 -26.185,-74.833c-3.742,-8.835 5.872,-15.59 11.757,-15.59l72.149,0c3.466,-0.038 6.355,2.77 6.414,6.236l0,132.804c-10.539,0.923 -21.944,1.522 -33.565,1.64c-18.943,0.191 -35.985,-0.396 -50.214,-3.117Z" style="fill:#8fba73;fill-rule:nonzero;"/><path id="Shape-316" d="M130.51,64.913l-23.446,-4.141l10.391,-24.412l13.042,8.129l0.013,20.424Z" style="fill:#f4d3ab;fill-rule:nonzero;"/><path id="Shape-321" d="M114.946,185.025c3.169,-6.106 4.23,-8.913 4.23,-8.913c0,0 -39.843,0 -47.504,-7.662c-6.576,-6.576 -2.299,-24.518 -2.299,-24.518l48.271,0c6.783,2.586 52.637,19.095 42.244,28.878l-7.817,8.413c-10.667,1.658 -23.442,3.023 -37.125,3.802Z" style="fill:#9499ea;fill-rule:nonzero;"/><path id="Shape-323" d="M130.54,56.035l5.503,0.611c3.726,0.959 9.379,7.644 10.365,10.917l1.667,15.376l-21.749,1.15l4.214,-28.054Z" style="fill:#9133c7;fill-rule:nonzero;"/><path id="Shape-324" d="M69.609,136.383l22.977,-63.425c-1.106,-1.002 14.193,-19.275 14.193,-19.275l26.428,2.437l4.672,21.205l-5.507,66.138l-58.108,4.537c-7.152,-2.042 -6.839,-5.267 -4.655,-11.617Z" style="fill:#9f44d3;fill-rule:nonzero;"/><path id="Shape-326" d="M143.725,142.319l-57.816,4.811l54.031,6.64l3.785,-11.451Z" style="fill:#d8d6dd;fill-rule:nonzero;"/><path id="Shape-327" d="M123.538,143.733c-2.768,-3.656 2.517,-9.441 9.724,-7.83c4.494,1.006 7.92,5.535 8.89,10.005c0.954,4.37 -7.337,1.833 -9.171,1.222c-4.324,-1.445 -7.332,-0.611 -9.443,-3.397Z" style="fill:#ffe0b2;fill-rule:nonzero;"/><path id="Shape-328" d="M139.582,155.948l-52.399,-5.624c-0.745,-0.097 -1.302,-0.751 -1.281,-1.502l0.008,-1.691l53.926,5.894l-0.254,2.923Z" style="fill:#bfbfbf;fill-rule:nonzero;"/><path id="Shape-329" d="M146.065,155.468c-7.576,2.052 -10.707,0.988 -10.264,-4.061l4.606,-49.564c0.438,-5.022 5.908,-7.792 11.638,-6.655l33.453,4.81c4.75,0.942 8.051,4.741 7.753,8.896c-0.006,0.073 -0.015,0.147 -0.029,0.219l-5.908,31.641c-0.36,4.133 -4.19,6.372 -8.971,7.527c-0.089,0.025 -32.278,7.187 -32.278,7.187Z" style="fill:#d8d6dd;fill-rule:nonzero;"/><path id="Shape-330" d="M123.749,143.148l4.701,-5.631l-18.887,-41.03c-0.19,-8.567 -4.857,-18.824 -4.857,-18.824l-15.739,0.381c0,0 -2.228,13.562 -0.611,20.176c2.264,9.263 35.393,44.928 35.393,44.928Z" style="fill:#ffe0b2;fill-rule:nonzero;"/><path id="Shape-331" d="M106.856,53.589l-9.698,3.283c-3.727,1.234 -6.917,7.874 -7.903,12.083l-2.733,20.095l22.816,1.153l-2.482,-36.614Z" style="fill:#9133c7;fill-rule:nonzero;"/><circle id="Shape-332" cx="168.463" cy="123.518" r="4.299" style="fill:#fff;"/><g id="Shape-333"><circle id="Ellipse_450" cx="134.33" cy="23.581" r="6.013" style="fill:#ffe0b2;"/><path id="Path_3449" d="M134.341,30.207l-0.017,0c-3.638,0 -6.632,-2.994 -6.632,-6.632c0,-3.639 2.994,-6.633 6.632,-6.633c3.639,0 6.633,2.994 6.633,6.633c0,2.394 -1.296,4.609 -3.384,5.782c-0.987,0.554 -2.1,0.847 -3.232,0.85Zm-0.019,-12.03c-2.961,0.004 -5.396,2.441 -5.396,5.402c0,2.964 2.439,5.403 5.403,5.403c2.413,0 4.547,-1.617 5.201,-3.94c0.132,-0.474 0.2,-0.964 0.2,-1.456c0,-2.967 -2.441,-5.408 -5.408,-5.409Z" style="fill:#694a52;fill-rule:nonzero;"/></g><g id="Shape-334"><circle id="Ellipse_451" cx="146.49" cy="26.193" r="6.013" style="fill:#ffe0b2;"/><path id="Path_3450" d="M146.5,32.82c-0.61,0 -1.216,-0.084 -1.803,-0.25c-2.851,-0.8 -4.837,-3.419 -4.837,-6.38c0,-3.636 2.992,-6.627 6.627,-6.627c3.636,0 6.627,2.991 6.627,6.627c0,0.607 -0.083,1.211 -0.248,1.796c-0.801,2.844 -3.411,4.826 -6.366,4.834Zm-0.019,-12.03c-2.96,0.004 -5.394,2.441 -5.394,5.401c0,2.964 2.439,5.402 5.402,5.402c2.412,0 4.546,-1.616 5.2,-3.938c0.132,-0.474 0.2,-0.964 0.2,-1.456c0,-2.967 -2.441,-5.409 -5.408,-5.409Z" style="fill:#694a52;fill-rule:nonzero;"/></g><circle id="Shape-335" cx="135.293" cy="24.686" r="6.013" style="fill:#6fafd8;fill-opacity:0.5;"/><circle id="Shape-336" cx="147.453" cy="27.299" r="6.013" style="fill:#6fafd8;fill-opacity:0.5;"/><path id="Shape-337" d="M139.592,48.65c-5.099,1.53 -17.503,-2.678 -20.828,-6.409c-1.245,-1.396 -2.836,-4.364 -2.847,-6.21l0.992,-14.491l2.113,0l2.374,14.519c0,0 6.115,-2.586 8.955,-0.727c1.939,1.274 13.486,3.804 14.958,5.845c2.766,3.837 -5.319,7.353 -5.717,7.473Z" style="fill:#37474f;fill-rule:nonzero;"/><path id="Shape-338" d="M140.868,42.373c-0.361,1.274 -2.946,1.66 -5.773,0.859c-2.827,-0.801 -4.828,-2.484 -4.466,-3.759c0.362,-1.275 10.6,1.624 10.239,2.9Z" style="fill:#ffe0b2;fill-rule:nonzero;"/><path id="Shape-339" d="M119.967,19.821l-0.206,1.205l8.22,1.408l0.206,-1.205l-8.22,-1.408Z" style="fill:#694a52;"/></g><g id="Mark"><g id="Group_5618"><circle id="Ellipse_466" cx="177.675" cy="56.797" r="14.285" style="fill:#f9b25f;"/><path id="Path_3877" d="M177.675,71.724c-8.189,0 -14.927,-6.738 -14.927,-14.927c0,-8.189 6.738,-14.928 14.927,-14.928c8.189,0 14.928,6.739 14.928,14.928c-0.009,8.185 -6.742,14.918 -14.928,14.927Zm0,-28.57c-7.484,0 -13.643,6.159 -13.643,13.643c0,7.485 6.159,13.643 13.643,13.643c7.485,0 13.643,-6.158 13.643,-13.643c-0.008,-7.481 -6.161,-13.635 -13.643,-13.644l0,0.001Z" style="fill:#fff;fill-rule:nonzero;"/></g><path id="Shape-905" d="M176.118,65.754l-7.369,-6.383l2.102,-2.427l4.746,4.111l8.652,-11.721l2.583,1.907l-10.714,14.513Z" style="fill:#fff;fill-rule:nonzero;"/></g></g></svg>