<?xml version="1.0" encoding="UTF-8" standalone="no"?><!DOCTYPE svg PUBLIC "-//W3C//DTD SVG 1.1//EN" "http://www.w3.org/Graphics/SVG/1.1/DTD/svg11.dtd"><svg width="100%" height="100%" viewBox="0 0 214 177" version="1.1" xmlns="http://www.w3.org/2000/svg" xmlns:xlink="http://www.w3.org/1999/xlink" xml:space="preserve" xmlns:serif="http://www.serif.com/" style="fill-rule:evenodd;clip-rule:evenodd;stroke-miterlimit:10;"><g><path id="Background-19" d="M22.57,143.834c33.282,47.323 61.899,35.993 133.506,11.196c64.501,-16.931 76.553,-107.95 27.458,-120.114c-53.436,-13.24 -37.44,14.461 -88.021,10.692c-123.632,-9.214 -102.172,56.667 -72.943,98.226Z" style="fill:#f2f5f8;fill-rule:nonzero;"/><g id="Person-43"><path id="Shape-905" d="M32.006,29.685c0,3.355 25.099,52.611 25.51,52.569c4.223,-0.424 38.971,-15.091 38.971,-18.15c0,-2.291 -10.9,-23.267 -20.899,-35.961c-4.35,-5.524 -8.202,-9.673 -9.733,-9.673c-4.816,-0.001 -33.849,7.858 -33.849,11.215Z" style="fill:#f9b25f;fill-rule:nonzero;"/><path id="Shape-910" d="M114.367,57.433l16.755,-0.931l0.123,-15.72l-16.756,0.931l-0.122,15.72Z" style="fill:#ffdfae;fill-rule:nonzero;"/><path id="Shape-911" d="M122.441,5.72l7.264,0.616c8.848,0.751 15.322,7.175 14.387,14.278l-2.099,15.941c-0.935,7.102 -8.941,12.297 -17.789,11.546l-7.265,-0.615c-8.848,-0.751 -15.323,-7.177 -14.388,-14.278l2.1,-15.94c0.936,-7.102 8.941,-12.298 17.79,-11.548Z" style="fill:#ffdfae;fill-rule:nonzero;"/><path id="Shape-912" d="M127.251,0.019l2.303,0.193c11.577,0.983 25.209,10.332 18.696,19.64c0,0 8.32,27.347 -6.857,27.08c-3.512,-0.063 -35.535,1.557 -35.367,-1.418c0,0 10.557,-14.841 9.403,-19.557c-0.853,-3.48 0.371,-3.834 -6.899,2.553c-1.501,1.319 -7.879,-4.739 -7.879,-4.739c-3.432,-4.33 -2.577,-11.296 3.074,-15.336c4.41,-3.15 18.944,-8.804 23.526,-8.416Z" style="fill:#37474f;fill-rule:nonzero;"/><path id="Shape-915" d="M150.843,153.842c0,0 -8.222,-61.283 -21.574,-71.927c-2.648,-2.111 19.583,-20.746 22.918,-17.212c13.003,13.78 6.497,89.858 6.497,89.858l-7.841,-0.719Z" style="fill:#ffdfae;fill-rule:nonzero;"/><path id="Shape-916" d="M36.137,31.637c0,2.932 21.923,45.956 22.283,45.918c3.689,-0.371 34.04,-13.182 34.04,-15.853c0,-2.932 -22.895,-40.116 -27.105,-40.116c-4.209,0 -29.218,7.12 -29.218,10.051Z" style="fill:#fff;fill-rule:nonzero;"/><path id="Shape-917" d="M82.733,142.591c-6.033,7.233 58.393,12.555 56.074,1.82c-3.233,-14.959 26.011,-68.449 14.485,-81.451c-2.106,-2.376 -10.334,-2.972 -13.193,-6.849c-4.253,-5.765 -25.205,-6.392 -33.413,0c-7.797,6.071 -13.071,6.553 -16.201,9.29c-15.689,13.716 5.574,61.211 -7.752,77.19Z" style="fill:#a25d91;fill-rule:nonzero;"/><path id="Shape-918" d="M52.253,61.843c2.708,2.967 2.748,10.299 0.125,12.313c-1.863,1.432 -7.075,-0.998 -9.335,-4.028c-2.484,-3.33 1.273,-19.102 3.459,-9.512c0.453,1.984 4.239,-0.427 5.751,1.227Z" style="fill:#ffdfae;fill-rule:nonzero;"/><path id="Shape-919" d="M51.854,71.612c11.171,3.69 21.876,41.666 21.876,41.666c0,0 7.267,-42.03 16.752,-45.679c6.457,-2.483 9.343,7.85 9.458,13.071c0.306,13.907 -12.479,47.834 -26.583,45.877c-18.618,2.024 -29.489,-43.676 -25.14,-53.181c0.002,0 2.679,-2.065 3.637,-1.754Z" style="fill:#ffdfae;fill-rule:nonzero;"/><path id="Shape-920" d="M41.815,23.754c-0.274,2.087 2.05,6.568 2.226,6.565c1.812,-0.032 14.208,-3.872 14.455,-5.774c0.274,-2.086 -0.482,-5.136 -2.506,-5.396c-2.023,-0.26 -13.903,2.52 -14.175,4.605Z" style="fill:#f9b25f;fill-rule:nonzero;"/><path id="Shape-921" d="M47.891,36.293c-0.087,-0.208 -0.327,-0.306 -0.535,-0.219l-3.789,1.591c-0.208,0.087 -0.306,0.327 -0.219,0.535l1.386,3.301c0.087,0.208 0.327,0.306 0.535,0.219l3.789,-1.59c0.208,-0.088 0.306,-0.328 0.219,-0.536l-1.386,-3.301Z" style="fill:none;stroke:#b0c9f1;stroke-width:0.96px;"/><path id="Shape-922" d="M43.502,37.686l2.506,1.901l1.895,-7.805" style="fill:#fff;fill-rule:nonzero;stroke:#37474f;stroke-width:0.96px;"/><path id="Line" d="M51.277,37.428l18.374,-6.642" style="fill:none;fill-rule:nonzero;stroke:#b0c9f1;stroke-width:0.96px;"/><path id="Shape-923" d="M52.971,46.859c-0.088,-0.208 -0.328,-0.306 -0.536,-0.219l-3.788,1.59c-0.209,0.088 -0.307,0.328 -0.219,0.536l1.385,3.301c0.088,0.208 0.328,0.306 0.536,0.218l3.788,-1.59c0.209,-0.087 0.307,-0.327 0.219,-0.535l-1.385,-3.301Z" style="fill:none;stroke:#b0c9f1;stroke-width:0.96px;"/><path id="Shape-924" d="M48.581,48.255l2.505,1.901l1.896,-7.806" style="fill:#fff;fill-rule:nonzero;stroke:#37474f;stroke-width:0.96px;"/><path id="Line-2" d="M56.356,47.994l18.374,-6.642" style="fill:none;fill-rule:nonzero;stroke:#b0c9f1;stroke-width:0.96px;"/><path id="Shape-925" d="M57.718,56.358c-0.088,-0.208 -0.328,-0.306 -0.536,-0.219l-3.788,1.59c-0.209,0.088 -0.307,0.328 -0.219,0.536l1.385,3.301c0.088,0.208 0.328,0.306 0.536,0.218l3.788,-1.59c0.209,-0.087 0.307,-0.327 0.219,-0.535l-1.385,-3.301Z" style="fill:none;stroke:#b0c9f1;stroke-width:0.96px;"/><path id="Shape-926" d="M53.327,57.752l2.505,1.901l1.896,-7.806" style="fill:#fff;fill-rule:nonzero;stroke:#37474f;stroke-width:0.96px;"/><path id="Line-3" d="M61.103,57.493l20.366,-7.362" style="fill:none;fill-rule:nonzero;stroke:#b0c9f1;stroke-width:0.96px;"/><path id="Shape-927" d="M61.185,65.575c-0.087,-0.208 -0.327,-0.306 -0.535,-0.218l-3.789,1.59c-0.208,0.087 -0.306,0.327 -0.219,0.535l1.386,3.301c0.087,0.208 0.327,0.306 0.535,0.219l3.789,-1.59c0.208,-0.088 0.306,-0.328 0.219,-0.536l-1.386,-3.301Z" style="fill:none;stroke:#b0c9f1;stroke-width:0.96px;"/><path id="Shape-928" d="M56.794,66.969l2.506,1.902l1.895,-7.806" style="fill:#fff;fill-rule:nonzero;stroke:#37474f;stroke-width:0.96px;"/><path id="Line-4" d="M64.57,66.71l23.022,-8.322" style="fill:none;fill-rule:nonzero;stroke:#b0c9f1;stroke-width:0.96px;"/></g><path id="Shape-914" d="M149.106,157.446c0.804,-5.438 5.07,-8.106 9.147,-4.907c0.457,0.359 0.825,0.868 1.111,1.495c-1.08,0.372 -2.176,0.704 -3.288,0.996c-2.37,0.821 -4.693,1.627 -6.97,2.416Z" style="fill:#ffdfae;fill-rule:nonzero;"/><path id="Shape-913" d="M78.364,176.392c1.511,-12.859 3.783,-24.981 6.852,-31.957c2.013,-4.575 52.383,-0.355 53.669,2.681c1.697,4.012 2.919,8.245 3.745,12.571c-26.964,9.307 -47.314,15.892 -64.266,16.705Z" style="fill:#92aed9;fill-rule:nonzero;"/></g></svg>