<?xml version="1.0" encoding="UTF-8" standalone="no"?><!DOCTYPE svg PUBLIC "-//W3C//DTD SVG 1.1//EN" "http://www.w3.org/Graphics/SVG/1.1/DTD/svg11.dtd"><svg width="100%" height="100%" viewBox="0 0 250 327" version="1.1" xmlns="http://www.w3.org/2000/svg" xmlns:xlink="http://www.w3.org/1999/xlink" xml:space="preserve" xmlns:serif="http://www.serif.com/" style="fill-rule:evenodd;clip-rule:evenodd;stroke-linejoin:round;stroke-miterlimit:2;"><g id="money"><g id="top"><path id="Shape-627" d="M34.295,45.757c0.291,1.171 18.629,40.153 18.629,40.153c0,0 52.947,-40.14 72.467,-32.64c0.736,0.283 -16.467,-53.27 -16.467,-53.27c0,0 -79.901,24.537 -74.629,45.757Z" style="fill:#b2dfdb;fill-rule:nonzero;"/><path id="Shape-628" d="M54.674,82.363l-0.523,-1.073c-11.571,-23.658 -17.423,-36.114 -17.396,-37.02c0.635,-20.384 67.223,-40.095 70.057,-40.924l0.895,-0.262l0.275,0.891c0.036,0.107 3.412,11.038 6.693,21.878c6.805,22.48 6.698,22.583 6.109,23.147l-0.422,0.405l-0.564,-0.194c-6.866,-2.454 -20.095,2.33 -38.274,13.833c-8.96,5.733 -17.614,11.93 -25.926,18.566l-0.924,0.753Zm-16.023,-38.135c0.569,1.924 10.052,21.6 16.68,35.167c6.739,-5.382 46.077,-36.017 63.575,-32.393c-1.433,-5.557 -7.861,-26.699 -12.454,-41.57c-3.745,1.137 -18.665,5.799 -33.467,12.246c-22.124,9.638 -33.992,18.815 -34.333,26.55l-0.001,0Z" style="fill:#6da196;fill-rule:nonzero;"/><g id="Shape-629"><path id="Path_2230" d="M81.412,31.704c-1.676,-0.505 -3.457,-0.552 -5.157,-0.137c-2.746,0.696 -3.983,2.553 -3.451,4.65c0.492,1.945 1.884,2.774 4.966,3.142c3.698,0.343 6.243,1.57 6.986,4.5c0.82,3.24 -1.252,6.327 -5.295,7.352c-2.129,0.539 -3.797,0.436 -4.855,0.147l0.185,-2.379c1.379,0.345 2.823,0.341 4.2,-0.013c2.837,-0.72 3.488,-2.69 3.128,-4.11c-0.493,-1.943 -2,-2.579 -5.151,-2.963c-3.864,-0.465 -6.081,-1.709 -6.855,-4.763c-0.814,-3.209 0.858,-6.588 5.764,-7.832c2.006,-0.508 4.345,-0.477 5.643,-0.018l-0.108,2.424Z" style="fill:#6da196;fill-rule:nonzero;"/><path id="Path_4963" d="M81.88,52.429l-2.238,0.568l-0.84,-3.316l2.237,-0.567l0.841,3.315Z" style="fill:#6da196;fill-rule:nonzero;"/><path id="Path_4962" d="M76.469,31.079l-2.238,0.568l-0.84,-3.316l2.238,-0.567l0.84,3.315Z" style="fill:#6da196;fill-rule:nonzero;"/></g><path id="Shape-630" d="M53.013,78.932c0.087,-1.387 1.252,-2.482 2.642,-2.482c1.453,0 2.647,1.195 2.647,2.647c0,0.095 -0.005,0.19 -0.015,0.284c-0.008,0.095 -1.463,0.463 -2.818,0.345c-1.279,-0.111 -2.464,-0.704 -2.456,-0.794Z" style="fill:#6da196;fill-rule:nonzero;"/><path id="Shape-631" d="M38.819,40.186c0.088,-0.007 0.177,-0.011 0.265,-0.011c1.737,0 3.166,1.429 3.166,3.166c0,1.712 -1.388,3.129 -3.1,3.165c-0.116,0.006 -0.808,-1.657 -0.89,-3.282c-0.078,-1.531 0.449,-3.033 0.559,-3.038Z" style="fill:#6da196;fill-rule:nonzero;"/><path id="Shape-632" d="M116.728,48.351c-0.668,-0.499 -1.062,-1.286 -1.062,-2.12c0,-1.452 1.195,-2.647 2.647,-2.647c0.619,0 1.218,0.217 1.693,0.612c0.075,0.059 0.126,1.967 -0.719,3.033c-0.798,1.007 -2.488,1.177 -2.559,1.122Z" style="fill:#6da196;fill-rule:nonzero;"/><path id="Shape-633" d="M108.593,7.455c-0.438,0.922 -1.371,1.512 -2.391,1.512c-1.453,0 -2.648,-1.195 -2.648,-2.648c0,-0.368 0.077,-0.733 0.227,-1.07c0.04,-0.087 1.881,-0.585 3.115,-0.016c1.167,0.538 1.734,2.14 1.697,2.222Z" style="fill:#6da196;fill-rule:nonzero;"/><circle id="Shape-634" cx="99.284" cy="30.717" r="7.641" style="fill:#6da196;"/><circle id="Shape-635" cx="56.64" cy="52.655" r="7.641" style="fill:#6da196;"/></g><g id="left"><path id="Shape-609" d="M116.764,323.962c1.601,-1.182 49.44,-53.695 49.44,-53.695c0,0 -94.536,-55.378 -95.411,-89.848c-0.033,-1.298 -70.793,58.669 -70.793,58.669c0,0 87.751,106.285 116.764,84.874Z" style="fill:#b2dfdb;fill-rule:nonzero;"/><path id="Shape-610" d="M106.604,322.241c-33.841,0 -97.313,-78.488 -100.17,-82.048l-0.963,-1.199l1.183,-0.98c0.145,-0.12 14.669,-12.157 29.118,-23.988c29.973,-24.545 30.191,-24.444 31.422,-23.899l0.882,0.387l0.059,0.981c1.434,29.353 88.949,76.929 89.833,77.405l1.73,0.933l-1.302,1.474c-28.759,32.544 -44.048,49.311 -45.444,49.84c-2.032,0.747 -4.183,1.117 -6.348,1.094Zm-96.767,-82.812c8.771,10.678 74.241,88.89 101.849,78.858c2.574,-2.081 26.579,-28.93 43.073,-47.581c-12.45,-6.875 -83.932,-47.495 -89.427,-76.457c-7.569,5.688 -35.732,28.806 -55.495,45.18Z" style="fill:#6da196;fill-rule:nonzero;"/><g id="Shape-611"><path id="Path_2216" d="M65.651,261.025c0.286,2.872 1.336,5.616 3.041,7.946c2.79,3.744 6.401,4.459 9.261,2.327c2.652,-1.976 3.038,-4.62 1.656,-9.547c-1.808,-5.853 -1.541,-10.503 2.456,-13.483c4.418,-3.291 10.431,-2.077 14.539,3.435c2.164,2.905 3.059,5.51 3.284,7.306l-3.739,1.216c-0.345,-2.318 -1.262,-4.515 -2.667,-6.39c-2.886,-3.872 -6.298,-3.62 -8.235,-2.178c-2.65,1.976 -2.669,4.675 -1.267,9.716c1.723,6.178 1.228,10.346 -2.939,13.45c-4.376,3.262 -10.579,2.844 -15.566,-3.848c-2.038,-2.736 -3.466,-6.317 -3.585,-8.587l3.761,-1.363Z" style="fill:#6da196;fill-rule:nonzero;"/><path id="Path_4954" d="M96.936,247.25l2.277,3.053l-4.524,3.373l-2.276,-3.053l4.523,-3.373Z" style="fill:#6da196;fill-rule:nonzero;"/><path id="Path_4955" d="M67.815,268.952l2.276,3.053l-4.523,3.373l-2.277,-3.053l4.524,-3.373Z" style="fill:#6da196;fill-rule:nonzero;"/></g><path id="Shape-612" d="M155.515,274.529c-0.45,0.152 -0.921,0.229 -1.395,0.229c-2.394,0 -4.363,-1.97 -4.363,-4.363c0,-1.924 1.272,-3.631 3.115,-4.181c0.148,-0.047 1.628,1.933 2.303,4.075c0.638,2.019 0.48,4.194 0.34,4.24Z" style="fill:#6da196;fill-rule:nonzero;"/><path id="Shape-613" d="M105.422,320.579c-0.389,-0.745 -0.593,-1.574 -0.593,-2.415c0,-2.864 2.357,-5.221 5.222,-5.221c2.078,0 3.966,1.24 4.791,3.147c0.085,0.175 -2.015,2.278 -4.437,3.427c-2.287,1.084 -4.904,1.227 -4.983,1.062Z" style="fill:#6da196;fill-rule:nonzero;"/><path id="Shape-614" d="M68.756,196.719c-0.514,1.894 -2.247,3.219 -4.209,3.219c-2.394,0 -4.363,-1.97 -4.363,-4.363c0,-0.417 0.06,-0.831 0.177,-1.231c0.042,-0.15 2.917,-1.43 5.074,-0.815c2.035,0.58 3.362,3.048 3.321,3.19Z" style="fill:#6da196;fill-rule:nonzero;"/><path id="Shape-615" d="M11.569,234.892c2.33,0.088 4.2,2.029 4.2,4.362c0,2.394 -1.97,4.365 -4.365,4.365c-0.054,0 -0.109,-0.001 -0.164,-0.004c-0.156,-0.006 -2.077,-2.497 -1.988,-4.737c0.084,-2.117 2.17,-3.99 2.317,-3.986Z" style="fill:#6da196;fill-rule:nonzero;"/><circle id="Shape-616" cx="52.881" cy="234.415" r="12.599" style="fill:#6da196;"/><circle id="Shape-617" cx="113.189" cy="285.566" r="12.599" style="fill:#6da196;"/></g><g id="right"><path id="Shape-618" d="M249.401,149.171c0.142,-1.461 -5.006,-53.61 -5.006,-53.61c0,0 -77.035,24.454 -96.357,7.908c-0.727,-0.624 -2.812,67.766 -2.812,67.766c0,0 101.578,4.407 104.175,-22.064Z" style="fill:#b2dfdb;fill-rule:nonzero;"/><path id="Shape-619" d="M168.921,168.745c-10.933,0 -18.867,-0.428 -19.913,-0.487l-1.133,-0.064l0.047,-1.133c0.006,-0.14 0.583,-14.042 1.237,-27.803c1.353,-28.538 1.517,-28.613 2.423,-29.02l0.648,-0.291l0.566,0.452c6.867,5.605 23.985,5.51 49.504,-0.274c12.604,-2.923 25.047,-6.502 37.277,-10.724l1.366,-0.487l0.166,1.44c3.63,31.831 5.267,48.491 4.867,49.518c-6.394,16.361 -50.543,18.873 -77.055,18.873Zm-18.65,-2.73c4.755,0.221 23.756,0.953 43.347,-0.411c29.286,-2.038 46.624,-7.728 50.166,-16.454c0.131,-2.439 -2.727,-28.852 -4.8,-47.102c-9.918,3.427 -67.477,22.535 -86.064,11.248c-0.619,6.953 -1.86,33.804 -2.649,52.719l0,0Z" style="fill:#6da196;fill-rule:nonzero;"/><g id="Shape-620"><path id="Path_2223" d="M189.669,146.097c1.716,1.262 3.738,2.042 5.856,2.258c3.43,0.32 5.604,-1.304 5.849,-3.926c0.227,-2.428 -1.031,-3.946 -4.413,-5.622c-4.101,-1.9 -6.517,-4.342 -6.175,-8.003c0.378,-4.048 4.012,-6.743 9.063,-6.271c2.659,0.248 4.529,1.045 5.624,1.808l-1.18,2.65c-1.441,-0.956 -3.098,-1.538 -4.82,-1.693c-3.546,-0.331 -5.093,1.664 -5.259,3.437c-0.227,2.428 1.242,3.77 4.701,5.491c4.235,2.107 6.273,4.435 5.917,8.252c-0.374,4.009 -3.667,7.201 -9.795,6.629c-2.507,-0.233 -5.175,-1.221 -6.477,-2.276l1.109,-2.734Z" style="fill:#6da196;fill-rule:nonzero;"/><path id="Path_4952" d="M197.571,122.149l2.797,0.261l-0.387,4.142l-2.796,-0.261l0.386,-4.142Z" style="fill:#6da196;fill-rule:nonzero;"/><path id="Path_4953" d="M195.082,148.825l2.796,0.261l-0.387,4.142l-2.796,-0.261l0.387,-4.142Z" style="fill:#6da196;fill-rule:nonzero;"/></g><path id="Shape-621" d="M241.45,103.523c-0.521,1.147 -1.671,1.887 -2.931,1.887c-1.766,0 -3.219,-1.453 -3.219,-3.218c0,-0.46 0.098,-0.914 0.288,-1.332c0.047,-0.106 1.866,0.065 3.37,0.749c1.422,0.653 2.536,1.813 2.492,1.914Z" style="fill:#6da196;fill-rule:nonzero;"/><path id="Shape-622" d="M241.945,153.714c-1.685,-0.444 -2.868,-1.98 -2.868,-3.723c0,-2.113 1.738,-3.851 3.851,-3.851c0.411,0 0.82,0.066 1.21,0.195c0.136,0.042 0.252,2.229 -0.314,4.125c-0.537,1.788 -1.75,3.292 -1.879,3.254Z" style="fill:#6da196;fill-rule:nonzero;"/><path id="Shape-623" d="M155.965,112.637c0.323,0.513 0.495,1.108 0.495,1.714c0,1.766 -1.454,3.219 -3.219,3.219c-1.106,0 -2.137,-0.569 -2.725,-1.505c-0.061,-0.098 0.658,-2.305 2.059,-3.182c1.325,-0.832 3.332,-0.339 3.39,-0.246Z" style="fill:#6da196;fill-rule:nonzero;"/><path id="Shape-624" d="M148.64,162.825c0.605,-0.611 1.43,-0.956 2.29,-0.956c1.766,0 3.22,1.454 3.22,3.22c0,0.828 -0.32,1.625 -0.892,2.224c-0.081,0.084 -2.395,-0.094 -3.578,-1.25c-1.117,-1.092 -1.117,-3.16 -1.04,-3.238Z" style="fill:#6da196;fill-rule:nonzero;"/><circle id="Shape-625" cx="168.782" cy="139.951" r="9.295" style="fill:#6da196;"/><circle id="Shape-626" cx="226.595" cy="132.166" r="9.295" style="fill:#6da196;"/></g></g></svg>