<?xml version="1.0" encoding="UTF-8" standalone="no"?><!DOCTYPE svg PUBLIC "-//W3C//DTD SVG 1.1//EN" "http://www.w3.org/Graphics/SVG/1.1/DTD/svg11.dtd"><svg width="100%" height="100%" viewBox="0 0 1168 718" version="1.1" xmlns="http://www.w3.org/2000/svg" xmlns:xlink="http://www.w3.org/1999/xlink" xml:space="preserve" xmlns:serif="http://www.serif.com/" style="fill-rule:evenodd;clip-rule:evenodd;stroke-linejoin:round;stroke-miterlimit:2;"><g id="Illustraton-21"><path id="Background-14" d="M1159.59,628.481c-69.957,-120.678 26.986,-272.857 -67.186,-321.431c-178.948,-92.3 -101.1,-244.784 -243.771,-285.359c-89.146,-25.351 -217.6,37.64 -312.154,120.5c-71.957,63.06 -307.964,-139.345 -431.03,55.387c-41.823,66.182 -189.553,176.133 -39.966,238.054c188.614,78.076 -83.7,378.023 317.98,250.215c123.09,-39.165 871.558,107.253 776.127,-57.366Z" style="fill:#f2f5f8;fill-opacity:0.5;fill-rule:nonzero;"/><g id="Wallet"><path id="Shape-1464" d="M121.844,315.101l806.834,0c21.944,0 40,18.057 40,40l0,250.932c0,21.943 -18.056,40 -40,40l-806.834,0c-21.943,0 -40,-18.057 -40,-40l0,-250.932c0,-21.943 18.057,-40 40,-40Z" style="fill:#725e4f;fill-rule:nonzero;"/><g id="Dollar-2"><path id="Shape-1465" d="M891.737,492.627c0.928,-5.9 -40.3,-215.908 -40.3,-215.908c0,0 -556.176,101.812 -697.382,35.929c-5.321,-2.483 -15.271,273.3 -15.271,273.3c0,0 736.139,13.504 752.953,-93.321Z" style="fill:#80cbc4;fill-rule:nonzero;"/><path id="Shape-1466" d="M274.82,574.485c-64.464,0 -107.763,-1.081 -108.585,-1.1l-4.362,-0.113l0.243,-4.356c0.031,-0.556 3.139,-56.19 6.811,-111.478c2.157,-32.489 4.084,-58.507 5.728,-77.334c3.278,-37.542 4.455,-38.261 6.8,-39.694c1.238,-0.76 2.773,-0.861 4.1,-0.271c65.1,28.954 233.623,14.548 363.536,-2.636c141.221,-18.679 268.509,-44.633 269.779,-44.893l4.073,-0.834l0.909,4.058c0.108,0.48 10.872,48.582 21.066,96.7c5.99,28.278 10.616,51.034 13.748,67.636c6.215,32.938 5.292,34.293 4.016,36.169c-15.082,22.162 -60,39.213 -137.315,52.128c-60.215,10.058 -139.534,17.33 -235.753,21.615c-78.402,3.489 -155.542,4.403 -214.794,4.403Zm-104,-9.468c26.586,0.575 170.244,3.2 318.456,-3.4c269.068,-11.984 347.7,-44.147 365.892,-69.317c0.127,-12.17 -23.11,-120.864 -38.678,-190.574c-22.912,4.582 -138.924,27.323 -266.243,44.165c-83.173,11 -154.849,17.374 -213.037,18.94c-69.77,1.875 -120.448,-3.22 -150.783,-15.153c-3.848,22.622 -11.179,136.451 -15.607,215.339Zm684.858,-73.445l-0.008,0.011l0.008,-0.011Z" style="fill:#6da196;fill-rule:nonzero;"/><g id="Shape-1467"><path id="Path_2101" d="M474.343,488.985c14.784,3.333 29.986,4.417 45.093,3.216c24.69,-2.041 37.18,-10.491 34.378,-20.989c-2.6,-9.727 -14.067,-14.46 -40.756,-17.777c-32.124,-3.5 -53.339,-10.74 -57.254,-25.406c-4.327,-16.211 16.6,-30.251 52.939,-33.255c19.143,-1.583 33.673,-0.258 42.7,1.678l-3.732,11.513c-12.122,-2.388 -24.519,-3.063 -36.829,-2.005c-25.525,2.11 -32.967,11.405 -31.071,18.507c2.6,9.727 15.249,13.573 42.532,17c33.441,4.179 51.8,11.341 55.877,26.626c4.286,16.057 -13.368,31.719 -57.479,35.366c-18.033,1.491 -38.514,0.185 -49.49,-2.695l3.092,-11.779Z" style="fill:#6da196;fill-rule:nonzero;"/><path id="Path_2102" d="M513.165,402.562l-20.123,1.664l-4.428,-16.591l20.124,-1.664l4.427,16.591Z" style="fill:#6da196;fill-rule:nonzero;"/><path id="Path_2103" d="M541.682,509.4l-20.124,1.664l-4.428,-16.591l20.124,-1.664l4.428,16.591Z" style="fill:#6da196;fill-rule:nonzero;"/></g><path id="Shape-1468" d="M830.708,308.938c-5.193,6.56 -18.955,9.533 -30.737,6.639c-11.782,-2.894 -17.123,-10.558 -11.929,-17.119c0.337,-0.426 13.521,0.184 24.472,2.888c10.346,2.555 18.513,7.189 18.194,7.592Z" style="fill:#6da196;fill-rule:nonzero;"/><path id="Shape-1469" d="M838.08,511.258c-15.256,-2.433 -24.192,-11.085 -19.959,-19.325c4.233,-8.24 20.032,-12.948 35.288,-10.516c0.991,0.158 2,8.976 -1.968,16.637c-3.747,7.238 -12.425,13.353 -13.361,13.204Z" style="fill:#6da196;fill-rule:nonzero;"/><path id="Shape-1470" d="M212.162,349.265c6.968,6.031 3.84,14.064 -6.988,17.943c-10.828,3.879 -25.253,2.134 -32.221,-3.9c-0.452,-0.391 4.592,-9.319 14.678,-12.917c9.527,-3.395 24.103,-1.496 24.531,-1.126Z" style="fill:#6da196;fill-rule:nonzero;"/><path id="Shape-1471" d="M162.888,551.902c8.873,-5.2 23.629,-5.4 32.96,-0.456c9.331,4.944 9.7,13.161 0.828,18.356c-0.577,0.337 -17.348,-0.284 -26.012,-4.892c-8.184,-4.354 -8.32,-12.69 -7.776,-13.008Z" style="fill:#6da196;fill-rule:nonzero;"/><ellipse id="Shape-1472" cx="307.061" cy="458.844" rx="67.33" ry="37.471" style="fill:#6da196;"/><ellipse id="Shape-1473" cx="725.258" cy="425.034" rx="67.33" ry="37.471" style="fill:#6da196;"/><path id="Shape-1474" d="M915.472,488.642c1.684,-5.726 -14.464,-235.971 -14.464,-235.971c0,0 -562.228,45.633 -693.718,-37.972c-4.956,-3.151 -50.517,269.029 -50.517,269.029c0,0 728.2,108.663 758.699,4.914Z" style="fill:#b2dfdb;fill-rule:nonzero;"/><path id="Shape-1475" d="M702.689,523.158c-54.344,0 -120.039,-3.267 -195.989,-9.761c-163.25,-13.959 -319.522,-38.334 -321.081,-38.579l-4.31,-0.676l0.8,-4.288c0.1,-0.547 10.386,-55.312 21.182,-109.661c6.344,-31.935 11.623,-57.486 15.689,-75.942c8.109,-36.8 9.369,-37.363 11.88,-38.48c1.325,-0.592 2.861,-0.495 4.1,0.261c60.807,37.139 229.8,44.639 360.864,44.44c142.448,-0.246 271.983,-9.5 273.273,-9.6l4.148,-0.3l0.375,4.141c0.045,0.49 4.492,49.581 8.373,98.614c2.28,28.815 3.922,51.979 4.88,68.847c1.9,33.465 0.809,34.69 -0.7,36.385c-17.822,20.024 -64.566,31.119 -142.906,33.917c-12.724,0.455 -26.25,0.683 -40.578,0.682Zm-511.444,-56.043c26.289,4.012 168.4,25.21 316.216,37.846c268.358,22.941 350.489,1.226 371.788,-21.378c1.7,-12.063 -7.274,-122.843 -13.688,-193.977c-23.313,1.577 -141.292,9.112 -269.72,9.334c-83.879,0.136 -155.795,-2.813 -213.7,-8.793c-69.423,-7.168 -119.017,-18.782 -147.553,-34.541c-6.736,21.936 -28.737,133.86 -43.343,211.509Zm688.6,15.813l-0.009,0.01l0.01,-0.01l-0.001,0Z" style="fill:#6da196;fill-rule:nonzero;"/><g id="Shape-1476"><path id="Path_2110" d="M502.06,431.009c14.229,5.218 29.164,8.261 44.3,9.025c24.747,1.171 38.225,-5.591 36.8,-16.363c-1.315,-9.981 -12.077,-16.159 -38.112,-22.9c-31.4,-7.627 -51.5,-17.553 -53.484,-32.6c-2.193,-16.635 20.371,-27.847 56.8,-26.123c19.187,0.909 33.422,4.1 42.12,7.19l-5.191,10.933c-11.711,-3.937 -23.917,-6.211 -36.26,-6.755c-25.583,-1.211 -34.166,7.042 -33.2,14.33c1.315,9.981 13.362,15.432 39.974,22.36c32.619,8.472 49.894,17.949 51.961,33.634c2.171,16.476 -17.361,29.722 -61.573,27.629c-18.075,-0.856 -38.213,-4.8 -48.724,-9.078l4.589,-11.282Z" style="fill:#6da196;fill-rule:nonzero;"/><path id="Path_2111" d="M551.742,350.337l-20.17,-0.955l-2.244,-17.025l20.17,0.955l2.244,17.025Z" style="fill:#6da196;fill-rule:nonzero;"/><path id="Path_2112" d="M566.19,459.967l-20.17,-0.955l-2.243,-17.024l20.17,0.955l2.243,17.024Z" style="fill:#6da196;fill-rule:nonzero;"/></g><path id="Shape-1477" d="M873.026,299.004c-6,5.833 -14.325,6.595 -25.632,2.2c-11.307,-4.395 -15.612,-12.686 -9.613,-18.518c0.39,-0.379 13.384,1.931 23.892,6.031c9.929,3.875 11.723,9.929 11.353,10.287Z" style="fill:#6da196;fill-rule:nonzero;"/><path id="Shape-1478" d="M859.855,500.171c-14.812,-4.386 -22.554,-14.122 -17.29,-21.745c5.264,-7.623 21.539,-10.246 36.352,-5.86c0.962,0.286 0.82,9.159 -4.105,16.243c-4.652,6.692 -14.048,11.635 -14.957,11.362Z" style="fill:#6da196;fill-rule:nonzero;"/><path id="Shape-1479" d="M260.168,258.528c6.129,6.882 1.987,14.443 -9.251,16.888c-11.238,2.445 -22.409,-0.775 -28.538,-7.657c-0.4,-0.446 2.852,-9.024 13.318,-11.286c9.891,-2.133 24.091,1.633 24.471,2.055Z" style="fill:#6da196;fill-rule:nonzero;"/><path id="Shape-1480" d="M185.082,453.084c9.471,-4 24.13,-2.3 32.742,3.814c8.612,6.114 7.916,14.306 -1.555,18.308c-0.615,0.26 -17.165,-2.526 -25.16,-8.217c-7.551,-5.376 -6.608,-13.66 -6.027,-13.905Z" style="fill:#6da196;fill-rule:nonzero;"/><path id="Shape-1481" d="M273.323,370.754c2.677,-20.507 34.766,-33.251 71.614,-28.441c36.848,4.81 64.59,25.364 61.913,45.871c-2.676,20.507 -34.765,33.251 -71.613,28.441c-36.848,-4.81 -64.591,-25.364 -61.914,-45.871Z" style="fill:#6da196;"/><path id="Shape-1482" d="M692.378,391.355c2.677,-20.507 34.766,-33.251 71.614,-28.441c36.848,4.81 64.59,25.364 61.913,45.871c-2.676,20.507 -34.765,33.251 -71.613,28.441c-36.848,-4.81 -64.591,-25.364 -61.914,-45.871Z" style="fill:#6da196;"/></g><path id="Shape-1483" d="M906.015,628.964l-766.034,0c-18.729,-0.043 -34.134,-15.428 -34.2,-34.157l0,-228.057l834.432,0l0,228.057c-0.066,18.728 -15.47,34.113 -34.198,34.157Z" style="fill:#8b7561;fill-rule:nonzero;"/><path id="Shape-1484" d="M149.605,344.242l309.211,0c13.166,0 24,10.834 24,24l0,123.765c0,13.166 -10.834,24 -24,24l-309.211,0c-13.166,0 -24,-10.834 -24,-24l0,-123.765c0,-13.166 10.834,-24 24,-24Z" style="fill:#adadea;fill-rule:nonzero;"/><path id="Shape-1485" d="M504.276,585.498l-356.884,0c-22.598,-0.067 -41.173,-18.642 -41.24,-41.24l0,-117.228c0,-22.682 0.187,-41.24 0.187,-41.24l397.937,0l0,199.708Z" style="fill:#a08c7a;fill-rule:nonzero;"/><path id="Shape-1486" d="M149.605,382.152l309.211,0c13.166,0 24,10.834 24,24l0,123.765c0,13.166 -10.834,24 -24,24l-309.211,0c-13.166,0 -24,-10.834 -24,-24l0,-123.765c0,-13.166 10.834,-24 24,-24Z" style="fill:#8765db;fill-rule:nonzero;"/><path id="Shape-1487" d="M504.276,623.408l-356.884,0c-22.599,-0.067 -41.174,-18.642 -41.24,-41.241l0,-117.227c0,-22.682 0.187,-41.24 0.187,-41.24l397.937,0l0,199.708Z" style="fill:#8b7561;fill-rule:nonzero;"/><circle id="Shape-1488" cx="303.814" cy="467.337" r="65.335" style="fill:#e5e8f5;"/><path id="Shape-1489" d="M149.605,418.591l309.211,0c13.166,0 24,10.834 24,24l0,123.765c0,13.166 -10.834,24 -24,24l-309.211,0c-13.166,0 -24,-10.834 -24,-24l0,-123.765c0,-13.166 10.834,-24 24,-24Z" style="fill:#56557e;fill-rule:nonzero;"/><path id="Shape-1490" d="M499.84,628.895l-359.112,0c-19.513,-0.145 -35.48,-16.257 -35.45,-35.77l0,-91.746c0,-22.682 0.185,-41.24 0.185,-41.24l394.377,0l0,168.756Z" style="fill:#a08c7a;fill-rule:nonzero;"/><path id="Shape-1491" d="M499.84,366.779c4.134,0 7.536,3.402 7.536,7.536l0,247.015c0,4.134 -3.402,7.536 -7.536,7.536l0,-262.087Z" style="fill:#725e4f;fill-rule:nonzero;"/><path id="Shape-1492" d="M573.573,628.866c-4.136,0 -7.539,-3.403 -7.539,-7.539l0,-247.01c0.001,-4.135 3.404,-7.538 7.539,-7.538l0,262.087Z" style="fill:#725e4f;fill-rule:nonzero;"/><g id="Shape-1493"><path id="Path_4951" d="M621.229,406.576l267.248,0c8.777,0 16,7.223 16,16l0,149.972c0,8.777 -7.223,16 -16,16l-267.248,0c-8.777,0 -16,-7.223 -16,-16l0,-149.972c0,-8.777 7.223,-16 16,-16Z" style="fill:#c1b5a9;fill-rule:nonzero;"/><path id="Path_2123" d="M887.812,589.817l-265.918,0c-9.835,-0.011 -17.925,-8.101 -17.936,-17.936l0,-148.639c0.011,-9.835 8.101,-17.925 17.936,-17.936l265.918,0c9.835,0.011 17.925,8.101 17.935,17.936l0,148.641c-0.011,9.834 -8.101,17.923 -17.935,17.934Zm-265.918,-181.97c-8.446,0.007 -15.393,6.954 -15.4,15.4l0,148.636c0.009,8.444 6.956,15.388 15.4,15.395l265.918,0c8.441,-0.01 15.384,-6.954 15.393,-15.395l0,-148.641c-0.006,-8.443 -6.95,-15.39 -15.394,-15.4l-265.917,0.005Z" style="fill:#c1b5a9;fill-rule:nonzero;"/></g></g><g id="Dollars"><g id="Dollar-3"><path id="Shape-1494" d="M367.574,186.618c0.869,-0.641 26.827,-29.135 26.827,-29.135c0,0 -51.297,-30.051 -51.772,-48.751c-0.018,-0.7 -38.413,31.834 -38.413,31.834c0,0 47.615,57.666 63.358,46.052Z" style="fill:#b2dfdb;fill-rule:nonzero;"/><path id="Shape-1495" d="M362.062,185.684c-18.364,0 -52.8,-42.588 -54.355,-44.52l-0.523,-0.65l0.642,-0.532c0.079,-0.065 7.959,-6.6 15.8,-13.016c16.265,-13.318 16.383,-13.263 17.05,-12.968l0.478,0.211l0.032,0.533c0.778,15.927 48.265,41.742 48.744,42l0.939,0.506l-0.706,0.8c-15.605,17.659 -23.9,26.758 -24.66,27.044c-1.101,0.404 -2.267,0.605 -3.441,0.592Zm-52.509,-44.934c4.759,5.794 40.284,48.233 55.265,42.789c1.4,-1.129 14.422,-15.7 23.372,-25.818c-6.756,-3.731 -45.543,-25.771 -48.526,-41.487c-4.104,3.086 -19.386,15.631 -30.111,24.516Z" style="fill:#6da196;fill-rule:nonzero;"/><g id="Shape-1496"><path id="Path_2216" d="M339.839,152.468c0.155,1.559 0.725,3.048 1.65,4.312c1.514,2.032 3.473,2.42 5.025,1.263c1.439,-1.072 1.648,-2.507 0.9,-5.181c-0.982,-3.176 -0.837,-5.7 1.332,-7.316c2.4,-1.786 5.66,-1.127 7.889,1.864c0.919,1.15 1.533,2.513 1.782,3.964l-2.029,0.66c-0.187,-1.258 -0.684,-2.449 -1.447,-3.467c-1.566,-2.1 -3.417,-1.964 -4.468,-1.181c-1.438,1.072 -1.448,2.536 -0.688,5.272c0.935,3.352 0.667,5.613 -1.595,7.3c-2.375,1.77 -5.74,1.543 -8.446,-2.088c-1.039,-1.359 -1.709,-2.965 -1.945,-4.66l2.04,-0.742Z" style="fill:#6da196;fill-rule:nonzero;"/><path id="Path_4954" d="M356.814,144.993l1.236,1.657l-2.454,1.83l-1.236,-1.657l2.454,-1.83Z" style="fill:#6da196;fill-rule:nonzero;"/><path id="Path_4955" d="M341.013,156.769l1.236,1.657l-2.454,1.83l-1.236,-1.657l2.454,-1.83Z" style="fill:#6da196;fill-rule:nonzero;"/></g><path id="Shape-1497" d="M388.6,159.795c-0.245,0.083 -0.503,0.126 -0.762,0.126c-1.299,0 -2.368,-1.069 -2.368,-2.368c0,-1.046 0.694,-1.974 1.697,-2.271c0.577,0.634 1.003,1.39 1.249,2.211c0.252,0.74 0.315,1.531 0.184,2.302Z" style="fill:#6da196;fill-rule:nonzero;"/><path id="Shape-1498" d="M361.419,184.783c-0.209,-0.403 -0.318,-0.851 -0.318,-1.305c0,-1.554 1.279,-2.833 2.833,-2.833c1.125,0 2.148,0.671 2.597,1.702c-0.649,0.797 -1.473,1.433 -2.408,1.859c-0.837,0.42 -1.768,0.618 -2.704,0.577Z" style="fill:#6da196;fill-rule:nonzero;"/><path id="Shape-1499" d="M341.524,117.575c-0.282,1.024 -1.22,1.739 -2.282,1.739c-1.299,0 -2.367,-1.068 -2.367,-2.367c0,-0.224 0.032,-0.446 0.094,-0.661c0.839,-0.46 1.812,-0.617 2.753,-0.442c0.807,0.315 1.455,0.938 1.802,1.731Z" style="fill:#6da196;fill-rule:nonzero;"/><path id="Shape-1500" d="M310.493,138.287c1.265,0.048 2.279,1.101 2.279,2.366c0,1.3 -1.069,2.369 -2.368,2.369c-0.03,0 -0.059,-0.001 -0.089,-0.002c-0.645,-0.706 -1.026,-1.615 -1.079,-2.57c0.116,-0.859 0.568,-1.637 1.257,-2.163Z" style="fill:#6da196;fill-rule:nonzero;"/><circle id="Shape-1501" cx="332.911" cy="138.029" r="6.837" style="fill:#6da196;"/><circle id="Shape-1502" cx="365.634" cy="165.784" r="6.837" style="fill:#6da196;"/></g><g id="Dollar-4"><path id="Shape-1503" d="M224.712,39.434c0.105,-1.075 -3.682,-39.434 -3.682,-39.434c0,0 -56.664,17.987 -70.876,5.817c-0.535,-0.458 -2.069,49.847 -2.069,49.847c0,0 74.721,3.241 76.627,-16.23Z" style="fill:#b2dfdb;fill-rule:nonzero;"/><path id="Shape-1504" d="M165.519,53.832c-8.042,0 -13.877,-0.315 -14.647,-0.358l-0.833,-0.047l0.035,-0.833c0,-0.1 0.429,-10.329 0.91,-20.451c1,-20.992 1.115,-21.046 1.782,-21.346l0.477,-0.214l0.417,0.333c5.051,4.123 17.642,4.053 36.414,-0.2c9.271,-2.15 18.424,-4.783 27.42,-7.888l1,-0.358l0.121,1.059c2.67,23.414 3.875,35.668 3.579,36.424c-4.699,12.031 -37.175,13.879 -56.675,13.879Zm-13.718,-2.008c10.626,0.468 21.268,0.368 31.883,-0.3c21.541,-1.5 34.3,-5.684 36.9,-12.1c0.1,-1.794 -2.005,-21.223 -3.531,-34.647c-7.294,2.52 -49.633,16.576 -63.3,8.273c-0.459,5.109 -1.372,24.86 -1.953,38.774l0.001,0Z" style="fill:#6da196;fill-rule:nonzero;"/><g id="Shape-1505"><path id="Path_2223" d="M180.78,37.172c1.262,0.928 2.749,1.502 4.307,1.661c2.523,0.235 4.122,-0.96 4.3,-2.888c0.167,-1.786 -0.759,-2.9 -3.246,-4.135c-3.017,-1.4 -4.793,-3.194 -4.542,-5.887c0.278,-2.978 2.951,-4.959 6.666,-4.612c1.469,0.087 2.893,0.544 4.137,1.33l-0.868,1.95c-1.06,-0.703 -2.278,-1.132 -3.545,-1.246c-2.608,-0.243 -3.747,1.224 -3.869,2.528c-0.167,1.786 0.914,2.774 3.456,4.041c3.116,1.55 4.615,3.262 4.353,6.07c-0.275,2.949 -2.7,5.3 -7.205,4.876c-1.706,-0.138 -3.347,-0.714 -4.764,-1.674l0.82,-2.014Z" style="fill:#6da196;fill-rule:nonzero;"/><path id="Path_4952" d="M186.593,19.557l2.057,0.192l-0.284,3.047l-2.057,-0.192l0.284,-3.047Z" style="fill:#6da196;fill-rule:nonzero;"/><path id="Path_4953" d="M184.761,39.179l2.057,0.192l-0.284,3.047l-2.057,-0.192l0.284,-3.047Z" style="fill:#6da196;fill-rule:nonzero;"/></g><path id="Shape-1506" d="M218.868,5.856c-0.374,0.864 -1.231,1.426 -2.173,1.426c-1.299,0 -2.368,-1.069 -2.368,-2.368c0,-0.351 0.079,-0.698 0.229,-1.015c0.857,-0.004 1.705,0.184 2.479,0.552c0.718,0.309 1.349,0.792 1.833,1.405Z" style="fill:#6da196;fill-rule:nonzero;"/><path id="Shape-1507" d="M219.232,42.775c-1.245,-0.323 -2.121,-1.456 -2.121,-2.742c0,-1.554 1.279,-2.833 2.833,-2.833c0.307,0 0.611,0.05 0.901,0.147c0.157,1.016 0.078,2.054 -0.231,3.034c-0.249,0.903 -0.725,1.727 -1.382,2.394Z" style="fill:#6da196;fill-rule:nonzero;"/><path id="Shape-1508" d="M155.989,12.56c0.255,0.387 0.391,0.84 0.391,1.303c0,1.299 -1.069,2.368 -2.368,2.368c-0.831,0 -1.603,-0.437 -2.031,-1.15c0.22,-0.931 0.756,-1.759 1.515,-2.341c0.774,-0.389 1.672,-0.454 2.493,-0.18Z" style="fill:#6da196;fill-rule:nonzero;"/><path id="Shape-1509" d="M150.601,49.477c0.446,-0.459 1.06,-0.719 1.7,-0.719c1.3,0 2.369,1.069 2.369,2.369c0,0.616 -0.24,1.208 -0.669,1.65c-0.957,0.007 -1.887,-0.319 -2.632,-0.92c-0.561,-0.66 -0.837,-1.517 -0.768,-2.38Z" style="fill:#6da196;fill-rule:nonzero;"/><circle id="Shape-1510" cx="165.416" cy="32.652" r="6.837" style="fill:#6da196;"/><circle id="Shape-1511" cx="207.942" cy="26.926" r="6.837" style="fill:#6da196;"/></g><g id="Dollar-5"><path id="Shape-1512" d="M946.802,59.581c0.26,1.048 16.668,35.927 16.668,35.927c0,0 47.375,-35.916 64.841,-29.2c0.658,0.253 -14.734,-47.664 -14.734,-47.664c0,0 -71.492,21.949 -66.775,40.937Z" style="fill:#b2dfdb;fill-rule:nonzero;"/><path id="Shape-1513" d="M965.037,92.334l-0.468,-0.959c-10.353,-21.168 -15.59,-32.314 -15.565,-33.124c0.568,-18.239 60.148,-35.875 62.685,-36.617l0.8,-0.235l0.246,0.8c0.031,0.1 3.053,9.877 5.988,19.575c6.089,20.115 5.994,20.206 5.466,20.711l-0.378,0.362l-0.5,-0.174c-6.143,-2.2 -17.981,2.085 -34.246,12.378c-8.018,5.128 -15.761,10.673 -23.2,16.61l-0.828,0.673Zm-14.336,-34.117c0.509,1.722 8.993,19.326 14.924,31.466c6.03,-4.816 41.228,-32.226 56.884,-28.984c-1.282,-4.972 -7.033,-23.889 -11.143,-37.2c-10.17,3.116 -20.166,6.774 -29.945,10.957c-19.796,8.624 -30.414,16.835 -30.72,23.761Z" style="fill:#6da196;fill-rule:nonzero;"/><g id="Shape-1514"><path id="Path_2230" d="M988.961,47.007c-1.499,-0.452 -3.093,-0.494 -4.614,-0.123c-2.457,0.622 -3.564,2.284 -3.088,4.161c0.44,1.74 1.686,2.481 4.444,2.811c3.309,0.307 5.585,1.405 6.25,4.027c0.734,2.9 -1.121,5.661 -4.738,6.578c-1.414,0.409 -2.909,0.455 -4.345,0.131l0.166,-2.128c1.234,0.309 2.526,0.305 3.758,-0.012c2.539,-0.644 3.121,-2.407 2.8,-3.677c-0.441,-1.739 -1.79,-2.308 -4.609,-2.651c-3.455,-0.417 -5.441,-1.53 -6.134,-4.262c-0.727,-2.871 0.769,-5.894 5.158,-7.007c1.653,-0.441 3.393,-0.446 5.049,-0.016l-0.097,2.168Z" style="fill:#6da196;fill-rule:nonzero;"/><path id="Path_4963" d="M989.38,65.55l-2.003,0.508l-0.751,-2.967l2.002,-0.507l0.752,2.966Z" style="fill:#6da196;fill-rule:nonzero;"/><path id="Path_4962" d="M984.538,46.448l-2.003,0.508l-0.751,-2.967l2.002,-0.507l0.752,2.966Z" style="fill:#6da196;fill-rule:nonzero;"/></g><path id="Shape-1515" d="M963.551,89.264c0.097,-1.225 1.132,-2.182 2.361,-2.182c1.299,0 2.368,1.069 2.368,2.368c0,0.072 -0.003,0.143 -0.01,0.214c-0.806,0.29 -1.668,0.396 -2.521,0.309c-0.78,-0.05 -1.536,-0.294 -2.198,-0.709Z" style="fill:#6da196;fill-rule:nonzero;"/><path id="Shape-1516" d="M950.851,54.596c0.081,-0.007 0.162,-0.01 0.243,-0.01c1.554,0 2.833,1.278 2.833,2.833c0,1.532 -1.244,2.801 -2.776,2.832c-0.488,-0.904 -0.762,-1.909 -0.8,-2.936c-0.068,-0.934 0.104,-1.87 0.5,-2.719Z" style="fill:#6da196;fill-rule:nonzero;"/><path id="Shape-1517" d="M1020.56,61.902c-0.583,-0.448 -0.925,-1.143 -0.925,-1.878c0,-1.299 1.069,-2.368 2.368,-2.368c0.542,0 1.069,0.187 1.49,0.528c0.105,0.951 -0.123,1.91 -0.644,2.713c-0.599,0.625 -1.423,0.987 -2.289,1.005Z" style="fill:#6da196;fill-rule:nonzero;"/><path id="Shape-1518" d="M1013.28,25.313c-0.385,0.84 -1.228,1.381 -2.153,1.381c-1.299,0 -2.368,-1.069 -2.368,-2.368c0,-0.341 0.073,-0.677 0.215,-0.987c0.9,-0.326 1.885,-0.331 2.788,-0.014c0.749,0.435 1.296,1.151 1.518,1.988Z" style="fill:#6da196;fill-rule:nonzero;"/><circle id="Shape-1519" cx="1004.95" cy="46.123" r="6.837" style="fill:#6da196;"/><circle id="Shape-1520" cx="966.797" cy="65.753" r="6.837" style="fill:#6da196;"/></g></g><g id="Person-11"><path id="Shape-1521" d="M951.775,142.266c4.212,-12.2 -7.143,-27.188 -25.361,-33.479c-18.218,-6.291 -36.4,-1.5 -40.614,10.7c-4.214,12.2 61.762,34.979 65.975,22.779Z" style="fill:#e2555b;fill-rule:nonzero;"/><path id="Shape-1522" d="M892.703,648.833l24.311,0c0,0 10.875,-150.9 10.979,-151.358c6.388,-28.136 27.569,-76.828 27.569,-76.828l30.465,112.118l105.088,-38.427c0,0 -6.753,-23.737 -7.842,-23.527c-65.092,12.548 -72.935,9.411 -72.935,9.411c0,0 1.69,-96.633 -8.811,-123.635c-0.793,-2.037 -109.37,18.184 -109.37,18.184l-9.65,126.626l10.196,147.436Z" style="fill:#9499ea;fill-rule:nonzero;"/><g id="Dollar-6"><path id="Path_2142" d="M1030.43,372.865c-0.1,-0.562 -7.675,-19.508 -7.675,-19.508c0,0 -26.162,17.483 -35.179,13.387c-0.34,-0.154 6.282,25.648 6.282,25.648c0,0 38.466,-9.347 36.572,-19.527Z" style="fill:#94d3cc;fill-rule:nonzero;"/><path id="Path_2143" d="M994.231,391.443l-0.2,-0.81c-5.273,-21.52 -5.19,-21.59 -4.652,-22.046l0.4,-0.339l0.487,0.2c6.271,2.671 24.416,-8.812 30.876,-13.463l0.865,-0.623l0.411,0.984c7.276,17.439 7.232,17.921 7.209,18.18c-0.387,4.255 -6.389,8.539 -17.837,12.732c-5.486,1.97 -11.076,3.636 -16.746,4.991l-0.813,0.194Zm-3.249,-21.037c0.7,3.291 2.919,12.56 4.5,19.01c9.5,-2.264 31.577,-8.956 32.448,-15.92c-0.355,-1.224 -4.085,-10.314 -6.665,-16.516c-4.19,2.923 -21.925,14.839 -30.282,13.426l-0.001,0Z" style="fill:#6da196;fill-rule:nonzero;"/><g id="Group_4458"><path id="Path_2144" d="M1007.76,378.179c0.778,0.286 1.619,0.358 2.434,0.21c1.318,-0.252 1.955,-1.094 1.762,-2.1c-0.178,-0.932 -0.812,-1.364 -2.259,-1.625c-1.739,-0.267 -2.907,-0.918 -3.176,-2.325c-0.3,-1.555 0.771,-2.956 2.711,-3.326c0.76,-0.172 1.552,-0.148 2.3,0.068l-0.155,1.119c-0.642,-0.202 -1.324,-0.24 -1.985,-0.112c-1.363,0.26 -1.725,1.173 -1.6,1.854c0.179,0.933 0.873,1.276 2.352,1.546c1.812,0.329 2.826,0.98 3.106,2.445c0.294,1.54 -0.592,3.09 -2.945,3.54c-0.888,0.181 -1.807,0.129 -2.669,-0.151l0.124,-1.143Z" style="fill:#6da196;fill-rule:nonzero;"/><path id="Rectangle_5984" d="M1009.2,368.163l-1.073,0.205l0.305,1.591l1.073,-0.206l-0.305,-1.59Z" style="fill:#6da196;"/><path id="Rectangle_5985" d="M1011.16,378.409l-1.073,0.205l0.305,1.591l1.073,-0.206l-0.305,-1.59Z" style="fill:#6da196;"/></g><path id="Path_2145" d="M1022.52,356.653c-0.089,0.613 -0.621,1.073 -1.24,1.073c-0.688,0 -1.254,-0.566 -1.254,-1.254c0,-0.06 0.004,-0.12 0.013,-0.18c0.435,-0.128 0.894,-0.157 1.341,-0.084c0.411,0.051 0.803,0.204 1.14,0.445Z" style="fill:#6da196;fill-rule:nonzero;"/><path id="Path_2146" d="M1028.14,375.37c-0.819,-0.006 -1.489,-0.681 -1.489,-1.5c0,-0.823 0.677,-1.5 1.5,-1.5c0.003,0 0.007,0 0.01,0c0.23,0.493 0.342,1.032 0.328,1.576c0.007,0.497 -0.113,0.987 -0.349,1.424Z" style="fill:#6da196;fill-rule:nonzero;"/><path id="Path_2147" d="M991.538,369.314c0.267,0.238 0.42,0.579 0.42,0.936c0,0.688 -0.566,1.253 -1.253,1.253c-0.308,0 -0.604,-0.113 -0.834,-0.317c-0.025,-0.506 0.126,-1.005 0.426,-1.413c0.336,-0.312 0.783,-0.477 1.241,-0.459Z" style="fill:#6da196;fill-rule:nonzero;"/><path id="Path_2148" d="M994.231,388.876c0.222,-0.396 0.641,-0.642 1.095,-0.642c0.687,0 1.254,0.566 1.254,1.254c0,0.197 -0.047,0.391 -0.136,0.567c-0.486,0.144 -1.007,0.115 -1.474,-0.081c-0.382,-0.254 -0.648,-0.649 -0.739,-1.098Z" style="fill:#6da196;fill-rule:nonzero;"/><circle id="Ellipse_331" cx="999.288" cy="378.142" r="3.619" style="fill:#6da196;"/><circle id="Ellipse_332" cx="1020.07" cy="368.974" r="3.619" style="fill:#6da196;"/></g><g id="Dollar-7"><path id="Path_2149" d="M1034.38,374.669c-0.054,-0.569 -5.887,-20.119 -5.887,-20.119c0,0 -27.631,15.056 -36.241,10.165c-0.325,-0.184 3.947,26.109 3.947,26.109c0,0 39.15,-5.845 38.181,-16.155Z" style="fill:#b2dfdb;fill-rule:nonzero;"/><path id="Path_2150" d="M996.65,389.912l-0.125,-0.825c-3.314,-21.906 -3.225,-21.968 -2.649,-22.374l0.428,-0.3l0.467,0.247c6.013,3.23 25.109,-6.577 31.962,-10.628l0.918,-0.543l0.321,1.018c5.676,18.022 5.59,18.5 5.542,18.756c-0.768,4.2 -7.132,7.93 -18.911,11.075c-5.641,1.468 -11.359,2.624 -17.127,3.463l-0.826,0.111Zm-1.342,-21.245c0.395,3.34 1.777,12.772 2.766,19.338c9.667,-1.4 32.256,-6.076 33.751,-12.934c-0.243,-1.251 -3.139,-10.641 -5.152,-17.049c-4.437,2.535 -23.154,12.807 -31.365,10.645Z" style="fill:#6da196;fill-rule:nonzero;"/><g id="Group_4461"><path id="Path_2151" d="M1011.32,377.921c0.749,0.355 1.58,0.503 2.405,0.429c1.335,-0.131 2.045,-0.914 1.944,-1.933c-0.093,-0.945 -0.686,-1.432 -2.1,-1.823c-1.707,-0.422 -2.812,-1.176 -2.953,-2.6c-0.155,-1.575 1.034,-2.874 3,-3.068c0.772,-0.103 1.558,-0.009 2.284,0.274l-0.255,1.1c-0.621,-0.259 -1.297,-0.359 -1.967,-0.29c-1.38,0.136 -1.823,1.013 -1.755,1.7c0.093,0.945 0.754,1.349 2.2,1.751c1.775,0.491 2.726,1.23 2.874,2.715c0.154,1.56 -0.868,3.024 -3.253,3.26c-0.9,0.101 -1.811,-0.034 -2.644,-0.39l0.22,-1.125Z" style="fill:#6da196;fill-rule:nonzero;"/><path id="Path_4964" d="M1012.57,368.183l1.088,-0.107l0.159,1.612l-1.088,0.107l-0.159,-1.612Z" style="fill:#6da196;fill-rule:nonzero;"/><path id="Path_4965" d="M1013.59,378.563l1.088,-0.107l0.159,1.612l-1.088,0.107l-0.159,-1.612Z" style="fill:#6da196;fill-rule:nonzero;"/></g><path id="Path_2152" d="M1027.96,357.812c-0.119,0.581 -0.635,1.001 -1.228,1.001c-0.688,0 -1.254,-0.566 -1.254,-1.254c0,-0.111 0.015,-0.222 0.044,-0.33c0.445,-0.089 0.905,-0.076 1.344,0.037c0.405,0.088 0.781,0.276 1.094,0.546Z" style="fill:#6da196;fill-rule:nonzero;"/><path id="Path_2153" d="M1031.87,376.958c-0.791,-0.043 -1.419,-0.705 -1.419,-1.498c0,-0.823 0.677,-1.5 1.5,-1.5c0.07,0 0.14,0.005 0.21,0.015c0.184,0.512 0.248,1.059 0.186,1.6c-0.038,0.494 -0.203,0.97 -0.477,1.383Z" style="fill:#6da196;fill-rule:nonzero;"/><path id="Path_2154" d="M995.96,367.631c0.212,0.231 0.33,0.534 0.33,0.848c0,0.687 -0.565,1.253 -1.253,1.253c-0.341,0 -0.669,-0.14 -0.905,-0.387c0.021,-0.506 0.215,-0.99 0.551,-1.369c0.363,-0.28 0.823,-0.404 1.277,-0.345Z" style="fill:#6da196;fill-rule:nonzero;"/><path id="Path_2155" d="M996.876,387.356c0.232,-0.354 0.627,-0.568 1.05,-0.568c0.688,0 1.255,0.566 1.255,1.254c0,0.244 -0.071,0.483 -0.205,0.687c-0.496,0.099 -1.012,0.024 -1.46,-0.213c-0.359,-0.286 -0.589,-0.704 -0.64,-1.16Z" style="fill:#6da196;fill-rule:nonzero;"/><circle id="Ellipse_333" cx="1002.88" cy="377.121" r="3.619" style="fill:#6da196;"/><circle id="Ellipse_334" cx="1024.4" cy="369.861" r="3.619" style="fill:#6da196;"/></g><path id="Path_2156" d="M1006.86,385.343c0.978,3.74 1.847,21.473 1.847,21.473c0,0 -14.769,-11.737 -19.153,-17.189c-6.986,-8.689 -12.018,-26.147 -12.018,-26.147l23.391,-4.976c0,0 3.747,18.488 5.933,26.839Z" style="fill:#7a7fd1;fill-rule:nonzero;"/><path id="Shape-1524" d="M857.592,120.704c5.157,-12.855 32.174,-14.133 60.294,-2.852c28.12,11.281 46.763,30.876 41.606,43.731c-5.157,12.855 -32.174,14.133 -60.294,2.852c-28.12,-11.28 -46.763,-30.876 -41.606,-43.731Z" style="fill:#ff6369;"/><path id="Shape-1525" d="M949.169,149.27c3.137,3.137 -1.971,35.158 -9.457,40.193c-14.3,9.617 -14.58,-8.788 -25.834,-14.314c-26.3,-12.914 -40.1,2.126 -49.407,-18.037c-8.285,-17.943 3.373,-41.328 22.743,-21.959c0.787,0.788 37.65,-10.183 61.955,14.117Z" style="fill:#694a52;fill-rule:nonzero;"/><path id="Shape-1526" d="M937.843,234.861l-31.684,5.268l-5.6,-41.733l31.817,-5.29l5.467,41.755Z" style="fill:#f6b89f;fill-rule:nonzero;"/><path id="Shape-1527" d="M902.691,211.508c1.211,2.748 7.647,10.343 17.829,10.395c15.53,-3.325 14.744,-31.102 9.065,-36.567c-2.962,-2.592 -9.777,3.887 -12.08,0.695c-5.249,-6.871 -10.076,13.185 -12.465,18.719c-2.389,5.534 -6.263,-0.608 -2.349,6.758Z" style="fill:#efa88f;fill-rule:nonzero;"/><path id="Shape-1528" d="M866.105,219.659l-29.284,-12.113l-32.159,-49.717l-12.223,-0.967c0,0 14.985,51.7 23.486,66.889c4.533,8.1 24.337,19.633 41.027,26.3c2.89,-10.503 5.824,-20.249 9.153,-30.392Z" style="fill:#f6b89f;fill-rule:nonzero;"/><path id="Shape-1529" d="M1036.22,106.924l-9.627,-3.4l-34.508,78.014c-2.289,0.9 -11.126,11.4 -15.712,14.127c4.407,13.8 8.951,20.185 16.739,32.624c9.029,-10.564 19.329,-23.956 22.874,-36.055c4.962,-16.948 20.234,-85.31 20.234,-85.31Z" style="fill:#f6b89f;fill-rule:nonzero;"/><path id="Shape-1530" d="M935.076,212.812c0,0 -5.7,17.741 -15.357,19.251c-12.893,2.016 -15.915,-10.114 -15.915,-10.114l-43.542,-6.357l-23.24,-9.07l-29.018,-43.133l-10.979,8.627c0.812,0.639 9.411,34.506 18.822,54.112c7.467,15.556 62.516,42.562 62.516,42.562l12.241,112.515l115.446,-20.018l-28.369,-114.1c-0.266,-1.6 7.03,-8.98 15.425,-18.8c-0.954,-1.524 12.676,-8.053 23.505,-34.315c9.583,-23.24 15.685,-67.445 15.685,-67.445c0,0 -9.411,-4.705 -14.116,-6.274c-0.941,-0.313 -26.664,59.6 -26.664,59.6c0,0 -15.011,16.156 -15.132,15.776c-14.78,8.809 -38.824,16.77 -41.308,17.183Z" style="fill:#37474f;fill-rule:nonzero;"/><path id="Shape-1531" d="M934.881,213.043c0,0 -5.591,14.845 -14.767,17.428c-12.084,3.4 -16.405,-8.48 -16.405,-8.48l18.3,153.878l42.455,-7.362c0,0 -28.678,-155.614 -29.583,-155.464Z" style="fill:#fff;fill-rule:nonzero;"/><path id="Shape-1532" d="M1041.71,106.924c-2.336,-6.49 -2.458,-14.005 -13.1,-9.438c-6.641,2.849 -6.5,11.006 -6.5,18.849c0,6.9 3.4,7.153 10.2,4.705c6.8,-2.448 11.737,-7.625 9.4,-14.116Z" style="fill:#f6b89f;fill-rule:nonzero;"/><path id="Shape-1533" d="M946.981,159.293c0.633,7.106 -5.857,10.534 -6.079,16.987c-0.593,17.288 -12.389,36.555 -26.04,38.825c-11.57,1.923 -32.088,-17.212 -36.2,-41.969c-1.045,-5.912 -1.629,-11.897 -1.746,-17.9c-0.047,-10.5 30.792,9.02 48.729,-17.728c4.194,-6.253 5.091,21.6 11.681,20.5c0.284,-0.046 8.454,-12.188 9.655,1.285Z" style="fill:#f6b89f;fill-rule:nonzero;"/><path id="Shape-1534" d="M917.468,646.405l-24.588,0c-7.012,5.894 -14.601,11.066 -22.651,15.437c-8.752,4.528 -18.847,0.812 -22.651,9.905c-0.429,1.026 0,4.448 0,4.448l72.159,0l0,-4.448l-2.269,-25.342Z" style="fill:#8f97b9;fill-rule:nonzero;"/><path id="Shape-1535" d="M918.234,646.405l-26.511,0c-6.525,5.782 -13.703,10.783 -21.388,14.9c-8.751,4.528 -22.949,1.181 -22.757,10.447c0.023,1.112 72.159,0 72.159,0l-1.503,-25.347Z" style="fill:#fff;fill-rule:nonzero;"/><path id="Shape-1536" d="M1081.68,471.393l6.16,23.305c0,0 11.951,6.535 20.974,16.313c6.681,7.242 5.729,19.478 15.5,20.739c1.1,0.142 4.289,-1.177 4.289,-1.177l-19.095,-69.587l-4.29,1.177l-23.538,9.23Z" style="fill:#8f97b9;fill-rule:nonzero;"/><path id="Shape-1537" d="M1033.15,79.431c0,-1.499 -1.217,-2.716 -2.716,-2.716c-1.499,0 -2.716,1.217 -2.716,2.716l0,18.879c0,1.499 1.217,2.716 2.716,2.716c1.499,0 2.716,-1.217 2.716,-2.716l0,-18.879Z" style="fill:#f6b89f;"/><path id="Shape-1538" d="M1045.34,84.406c0.75,-1.298 0.304,-2.96 -0.994,-3.71c-1.298,-0.75 -2.96,-0.304 -3.71,0.994l-9.439,16.349c-0.75,1.298 -0.304,2.961 0.994,3.71c1.298,0.75 2.96,0.304 3.71,-0.994l9.439,-16.349Z" style="fill:#f6b89f;"/><path id="Shape-1539" d="M1081.18,470.319l7.015,25.566c7.301,4.763 14.022,10.362 20.024,16.684c6.681,7.241 7.211,21.818 16.1,19.182c1.066,-0.316 -19.1,-69.587 -19.1,-69.587l-24.039,8.155Z" style="fill:#fff;fill-rule:nonzero;"/><path id="Shape-1540" d="M786.122,150.842c2.337,-6.49 2.458,-14.005 13.1,-9.438c6.641,2.848 6.5,11.006 6.5,18.849c0,6.9 -3.4,7.152 -10.2,4.705c-6.8,-2.447 -11.741,-7.627 -9.4,-14.116Z" style="fill:#f6b89f;fill-rule:nonzero;"/><path id="Shape-1541" d="M794.685,142.228c0,1.499 1.217,2.716 2.716,2.716c1.499,0 2.716,-1.217 2.716,-2.716l0,-18.879c0,-1.499 -1.217,-2.716 -2.716,-2.716c-1.499,0 -2.716,1.217 -2.716,2.716l0,18.879Z" style="fill:#f6b89f;"/><path id="Shape-1542" d="M791.927,144.674c0.749,1.298 2.412,1.744 3.71,0.994c1.298,-0.75 1.744,-2.412 0.994,-3.71l-9.439,-16.35c-0.75,-1.298 -2.412,-1.743 -3.71,-0.994c-1.299,0.75 -1.744,2.412 -0.995,3.71l9.44,16.35Z" style="fill:#f6b89f;"/><path id="Shape-1543" d="M905.923,231.599c0.661,5.459 0.907,15.448 0.641,15.411c-3.431,-0.471 -6.222,-8.94 -5.986,-14.126c0.249,-5.493 2.432,-11.662 3.2,-10.895c1.05,3.119 1.769,6.34 2.145,9.61Z" style="fill:#37474f;fill-rule:nonzero;"/><path id="Shape-1544" d="M936.155,222.683c1.158,5.376 3.767,15.084 4.008,14.963c3.089,-1.565 3.38,-10.668 1.465,-15.493c-2.029,-5.111 -6.106,-10.229 -6.58,-9.253c0.024,3.291 0.395,6.57 1.107,9.783Z" style="fill:#37474f;fill-rule:nonzero;"/></g><g id="Person-12"><path id="Shape-1545" d="M751.627,415.533l34.592,-6.936l5.673,28.293l-34.592,6.936l-5.673,-28.293Z" style="fill:#ffdfae;fill-rule:nonzero;"/><path id="Shape-1546" d="M774.646,441.982l-10.979,-29.8l-103.521,15.685l17.253,-83.129l-79.208,2.353l19.606,130.184l156.849,-35.293Z" style="fill:#37474f;fill-rule:nonzero;"/><path id="Shape-1547" d="M797.713,395.517l27.286,69.891c-2.528,1.349 -5.413,1.88 -8.256,1.519l-27.065,-66.309l8.035,-5.101Z" style="fill:#694a52;fill-rule:nonzero;"/><path id="Shape-1548" d="M816.743,466.928c-8.685,-1.6 -12.641,-16.022 -25.046,-21.735c-9.789,-4.509 -8.422,-7.132 -8.422,-7.132c0,0 5.789,-12.751 1.147,-21.406c-2.237,-4.173 -5.275,-1.95 -7.671,-3.886c-0.968,-0.823 -1.332,-2.165 -0.914,-3.365l18.455,-11.715l28.014,68.848c-3.598,1.058 -5.563,0.391 -5.563,0.391Z" style="fill:#f9b25f;fill-rule:nonzero;"/><path id="Shape-1549" d="M780.644,396.711l34.592,-6.936l5.673,28.293l-34.592,6.936l-5.673,-28.293Z" style="fill:#ffdfae;fill-rule:nonzero;"/><path id="Shape-1550" d="M803.664,423.159l-10.979,-29.8l-103.52,15.685c0,0 23.528,-75.287 18.037,-81.561c-4.033,-4.61 -79.992,0.784 -79.992,0.784l19.606,130.184l156.848,-35.292Z" style="fill:#4d5b62;fill-rule:nonzero;"/><path id="Shape-1551" d="M826.729,376.695l27.286,69.89c-2.527,1.35 -5.413,1.881 -8.256,1.52l-27.065,-66.309l8.035,-5.101Z" style="fill:#694a52;fill-rule:nonzero;"/><path id="Shape-1552" d="M845.759,448.106c-8.685,-1.6 -12.641,-16.022 -25.046,-21.735c-9.789,-4.509 -8.422,-7.132 -8.422,-7.132c0,0 5.789,-12.751 1.147,-21.407c-2.237,-4.172 -5.275,-1.949 -7.671,-3.886c-0.968,-0.823 -1.332,-2.164 -0.913,-3.364l18.454,-11.715l28.014,68.848c-3.597,1.062 -5.563,0.391 -5.563,0.391Z" style="fill:#f9b25f;fill-rule:nonzero;"/><path id="Shape-1553" d="M595.057,96.132c1.568,-11.764 18.038,-25.1 32.154,-10.98c1.291,1.291 7.765,-2.49 17.253,-4.705c7.322,-1.709 19.626,5.52 24.311,12.548c10.979,16.47 16.469,3.138 20.39,25.1c2.406,13.471 -8.627,16.469 -7.842,24.311c2.049,20.483 -8.645,34.823 -21.174,35.291c-19.829,0.74 -16.2,-30.262 -32.938,-37.643c-22.745,-10.032 -34.5,-26.322 -32.154,-43.922Z" style="fill:#37474f;fill-rule:nonzero;"/><path id="Shape-1554" d="M666.546,212.99l-32.119,0l1.317,-42.087l32.252,0l-1.45,42.087Z" style="fill:#f7d9b0;fill-rule:nonzero;"/><path id="Shape-1555" d="M636.806,175.884c-1.185,2.763 4.618,16.687 6.038,19.338c5.952,4.752 26.346,-9.981 25.054,-19.338c-0.124,-3.934 -5.973,4.72 -5.209,0.859c1.446,-8.525 -12.911,-7.725 -18.588,-5.7c-5.677,2.025 -4.579,-3.042 -7.295,4.841Z" style="fill:#f4ca92;fill-rule:nonzero;"/><path id="Shape-1556" d="M598.273,186.228l-26.9,-16.752l-23.567,-54.319l-11.9,-2.955c0,0 6.3,53.461 12.2,69.835c3.144,8.732 20.787,23.358 36.159,32.674c4.568,-9.89 9.06,-19.022 14.008,-28.483Z" style="fill:#ffdfae;fill-rule:nonzero;"/><path id="Shape-1557" d="M667.428,190.787c0,0 -8.537,16.565 -18.306,16.471c-13.049,-0.124 -14.041,-12.587 -14.041,-12.587l-46.171,-14.775c-1.031,2.456 -11.64,30.749 -11.64,30.749c11.921,13.063 25.049,25.963 25.049,25.963c0,0 -17.327,101.8 -6.375,113c32.048,32.774 117.166,-0.813 117.166,-0.813l-9.273,-117.2c0,-1.622 8.407,-7.705 18.3,-16.017c-5.642,-13.548 -9.056,-20.619 -11.141,-34.956c-16.019,6.255 -41.045,10.165 -43.568,10.165Z" style="fill:#f9b25f;fill-rule:nonzero;"/><path id="Shape-1558" d="M742.064,74.785l-12.466,3.62l-0.8,90.881c-2.407,0.516 -12.844,9.417 -17.816,11.36c2.085,14.336 5.52,21.379 11.162,34.927c10.64,-8.941 23,-20.461 28.478,-31.816c7.674,-15.905 -8.558,-108.972 -8.558,-108.972Z" style="fill:#ffdfae;fill-rule:nonzero;"/><path id="Shape-1559" d="M687.953,139.949c-0.541,7.114 -7.505,9.43 -8.782,15.76c-3.421,16.957 -18.217,34.025 -32.057,34.025c-11.728,0 -28.831,-22.241 -28.831,-47.338c0.051,-6.001 0.457,-11.994 1.214,-17.947c0.655,-5.578 16.339,16.381 47.995,-5.476c4.8,-3.313 5.463,20.67 8.34,26.562c0.838,1.717 1.459,-6.34 2.8,-8.444c1.123,-1.747 10.347,-10.634 9.321,2.858Z" style="fill:#ffdfae;fill-rule:nonzero;"/><g id="Dollar-8"><path id="Path_2184" d="M562.469,84.959c-0.6,-0.9 -27.935,-28.074 -27.935,-28.074c0,0 -32.261,49.935 -50.968,49.593c-0.7,-0.014 30.126,39.766 30.126,39.766c0,0 59.697,-45.05 48.777,-61.285Z" style="fill:#94d3cc;fill-rule:nonzero;"/><path id="Path_2185" d="M513.773,143.277l-0.5,-0.664c-0.062,-0.081 -6.243,-8.24 -12.314,-16.354c-12.592,-16.827 -12.533,-16.945 -12.211,-17.6l0.232,-0.469l0.534,-0.008c15.943,-0.082 43.81,-46.4 44.09,-46.864l0.547,-0.916l0.767,0.741c16.96,16.361 25.688,25.047 25.942,25.818c5.695,17.337 -44.28,54.259 -46.41,55.823l-0.677,0.493Zm-22.838,-33.511c2.9,4.236 14.769,20.051 23.176,31.153c6,-4.5 49.948,-38.143 45.163,-53.343c-1.068,-1.445 -15.053,-15.094 -24.773,-24.478c-4.022,6.587 -27.735,44.375 -43.566,46.668Z" style="fill:#6da196;fill-rule:nonzero;"/><g id="Group_4464"><path id="Path_2186" d="M527.142,111.175c1.564,-0.087 3.076,-0.591 4.379,-1.46c2.1,-1.424 2.57,-3.364 1.481,-4.965c-1.009,-1.484 -2.432,-1.756 -5.136,-1.124c-3.216,0.842 -5.729,0.587 -7.25,-1.651c-1.68,-2.474 -0.879,-5.7 2.207,-7.8c1.189,-0.868 2.578,-1.421 4.038,-1.607l0.571,2.057c-1.265,0.132 -2.477,0.576 -3.527,1.294c-2.167,1.473 -2.111,3.328 -1.375,4.412c1.009,1.484 2.47,1.558 5.237,0.917c3.39,-0.788 5.636,-0.42 7.221,1.912c1.664,2.449 1.291,5.8 -2.454,8.346c-1.403,0.979 -3.036,1.579 -4.74,1.74l-0.652,-2.071Z" style="fill:#6da196;fill-rule:nonzero;"/><path id="Path_4958" d="M520.415,93.89l1.709,-1.161l1.72,2.531l-1.709,1.161l-1.72,-2.531Z" style="fill:#6da196;fill-rule:nonzero;"/><path id="Path_4959" d="M531.49,110.19l1.709,-1.161l1.72,2.531l-1.709,1.161l-1.72,-2.531Z" style="fill:#6da196;fill-rule:nonzero;"/></g><path id="Path_2187" d="M536.592,62.78c0.058,0.207 0.087,0.42 0.087,0.635c0,1.299 -1.069,2.368 -2.368,2.368c-1.073,0 -2.019,-0.73 -2.291,-1.768c0.659,-0.549 1.433,-0.942 2.264,-1.152c0.751,-0.219 1.544,-0.247 2.308,-0.083Z" style="fill:#6da196;fill-rule:nonzero;"/><path id="Path_2188" d="M560.369,91.027c-0.373,0.172 -0.779,0.262 -1.189,0.262c-1.554,0 -2.833,-1.279 -2.833,-2.833c0,-1.168 0.722,-2.222 1.812,-2.643c0.767,0.684 1.367,1.535 1.752,2.487c0.383,0.855 0.54,1.794 0.458,2.727Z" style="fill:#6da196;fill-rule:nonzero;"/><path id="Path_2189" d="M492.355,107.968c0.968,0.32 1.627,1.23 1.627,2.25c0,1.3 -1.07,2.37 -2.37,2.37c-0.252,0 -0.503,-0.041 -0.743,-0.12c-0.424,-0.858 -0.538,-1.837 -0.322,-2.77c0.349,-0.794 1,-1.417 1.808,-1.73Z" style="fill:#6da196;fill-rule:nonzero;"/><path id="Path_2190" d="M511.693,139.873c0.1,-1.223 1.134,-2.176 2.361,-2.176c1.299,0 2.368,1.069 2.368,2.369c0,0.064 -0.003,0.128 -0.008,0.192c-0.734,0.614 -1.658,0.955 -2.615,0.965c-0.853,-0.152 -1.612,-0.638 -2.106,-1.35Z" style="fill:#6da196;fill-rule:nonzero;"/><circle id="Ellipse_336" cx="512.414" cy="117.467" r="6.837" style="fill:#6da196;"/><circle id="Ellipse_337" cx="541.572" cy="85.987" r="6.837" style="fill:#6da196;"/></g><g id="Dollar-9"><path id="Path_2191" d="M769.277,75.67c0.26,-1.048 2.063,-39.551 2.063,-39.551c0,0 -58.67,9.6 -70.971,-4.5c-0.464,-0.531 -9.261,49.023 -9.261,49.023c0,0 73.462,14.016 78.169,-4.972Z" style="fill:#94d3cc;fill-rule:nonzero;"/><path id="Path_2192" d="M739.072,83.899c-19.984,0 -43.313,-4.7 -44.893,-5.024l-0.817,-0.167l0.155,-0.82c0.019,-0.1 1.919,-10.158 3.858,-20.1c4.023,-20.628 4.149,-20.664 4.852,-20.863l0.5,-0.144l0.364,0.39c4.4,4.81 16.867,6.562 36.06,5.069c9.485,-0.785 18.922,-2.066 28.272,-3.837l1.046,-0.209l-0.034,1.066c-0.745,23.554 -1.328,35.854 -1.728,36.558c-3.514,6.17 -14.894,8.081 -27.635,8.081Zm-43.736,-6.522c10.446,2.001 20.992,3.441 31.592,4.315c21.531,1.635 34.757,-0.661 38.264,-6.636c0.355,-1.761 1.087,-21.289 1.52,-34.793c-7.582,1.437 -51.511,9.221 -63.836,-0.975c-1.192,4.996 -4.953,24.406 -7.54,38.089Z" style="fill:#6da196;fill-rule:nonzero;"/><g id="Group_4467"><path id="Path_2193" d="M726.131,67.073c1.114,1.1 2.503,1.883 4.021,2.266c2.463,0.6 4.219,-0.353 4.675,-2.235c0.423,-1.744 -0.33,-2.982 -2.614,-4.562c-2.782,-1.818 -4.281,-3.853 -3.643,-6.482c0.706,-2.906 3.638,-4.479 7.263,-3.6c1.441,0.299 2.782,0.958 3.9,1.915l-1.141,1.8c-0.947,-0.849 -2.091,-1.45 -3.328,-1.746c-2.546,-0.618 -3.885,0.669 -4.194,1.942c-0.423,1.743 0.5,2.877 2.835,4.5c2.859,1.984 4.095,3.9 3.429,6.636c-0.7,2.878 -3.435,4.851 -7.835,3.782c-1.668,-0.383 -3.208,-1.191 -4.471,-2.346l1.103,-1.87Z" style="fill:#6da196;fill-rule:nonzero;"/><path id="Rectangle_5996" d="M736.439,50.973l-2.008,-0.488l-0.722,2.974l2.008,0.487l0.722,-2.973Z" style="fill:#6da196;"/><path id="Rectangle_5997" d="M731.788,70.123l-2.008,-0.488l-0.722,2.974l2.008,0.487l0.722,-2.973Z" style="fill:#6da196;"/></g><path id="Path_2194" d="M768.35,41.598c-0.431,0.697 -1.194,1.122 -2.013,1.122c-1.3,0 -2.368,-1.069 -2.368,-2.368c0,-0.468 0.138,-0.926 0.398,-1.315c0.849,0.121 1.66,0.431 2.373,0.906c0.666,0.409 1.219,0.978 1.61,1.655Z" style="fill:#6da196;fill-rule:nonzero;"/><path id="Path_2195" d="M763.368,78.182c-1.048,-0.441 -1.734,-1.473 -1.734,-2.611c0,-1.554 1.279,-2.833 2.833,-2.833c0.446,0 0.886,0.105 1.283,0.307c0.008,1.027 -0.22,2.043 -0.668,2.968c-0.377,0.857 -0.967,1.604 -1.714,2.169Z" style="fill:#6da196;fill-rule:nonzero;"/><path id="Path_2196" d="M705.163,39.132c0.143,0.31 0.217,0.648 0.217,0.99c0,1.299 -1.069,2.368 -2.368,2.368c-0.948,0 -1.809,-0.57 -2.18,-1.443c0.352,-0.891 1.002,-1.633 1.838,-2.1c0.822,-0.271 1.72,-0.205 2.493,0.185Z" style="fill:#6da196;fill-rule:nonzero;"/><path id="Path_2197" d="M694.489,74.881c0.411,-0.311 0.913,-0.479 1.429,-0.479c1.3,0 2.369,1.069 2.369,2.369c0,0.73 -0.338,1.42 -0.914,1.869c-0.948,-0.132 -1.821,-0.589 -2.471,-1.292c-0.459,-0.735 -0.608,-1.623 -0.413,-2.467Z" style="fill:#6da196;fill-rule:nonzero;"/><circle id="Ellipse_338" cx="711.583" cy="60.377" r="6.837" style="fill:#6da196;"/><circle id="Ellipse_339" cx="754.489" cy="60.865" r="6.837" style="fill:#6da196;"/></g><g id="Dollar-10"><path id="Path_2198" d="M774.647,81.858c0.353,-1.021 5.616,-39.2 5.616,-39.2c0,0 -59.3,4.277 -70.279,-10.872c-0.413,-0.571 -13.637,47.99 -13.637,47.99c0,0 71.901,20.571 78.3,2.082Z" style="fill:#b2dfdb;fill-rule:nonzero;"/><path id="Path_2199" d="M752.709,87.773c-21.271,0 -51.363,-8.946 -53.146,-9.482l-0.8,-0.241l0.229,-0.8c0.028,-0.1 2.826,-9.944 5.653,-19.674c5.863,-20.182 5.994,-20.206 6.71,-20.342l0.515,-0.1l0.328,0.421c3.95,5.187 16.216,8.057 35.471,8.3c9.512,0.07 19.021,-0.355 28.489,-1.275l1.06,-0.114l-0.13,1.059c-2.863,23.391 -4.55,35.588 -5.013,36.253c-3.078,4.419 -10.448,5.995 -19.366,5.995Zm-51.858,-10.869c10.224,2.933 20.597,5.317 31.075,7.141c21.3,3.565 34.677,2.472 38.706,-3.163c0.511,-1.722 3,-21.1 4.646,-34.515c-7.681,0.749 -52.131,4.544 -63.489,-6.718c-1.636,4.866 -7.124,23.858 -10.938,37.253l0,0.002Z" style="fill:#6da196;fill-rule:nonzero;"/><g id="Group_4470"><path id="Path_2200" d="M732.449,69.412c1.011,1.196 2.323,2.1 3.8,2.619c2.4,0.817 4.233,0.028 4.858,-1.8c0.578,-1.7 -0.061,-3 -2.193,-4.779c-2.607,-2.062 -3.917,-4.224 -3.044,-6.784c0.965,-2.831 4.026,-4.135 7.558,-2.931c1.409,0.427 2.686,1.205 3.713,2.259l-1.3,1.694c-0.865,-0.932 -1.95,-1.633 -3.156,-2.039c-2.48,-0.845 -3.929,0.316 -4.351,1.556c-0.579,1.7 0.241,2.911 2.418,4.735c2.669,2.233 3.726,4.249 2.817,6.918c-0.955,2.8 -3.858,4.522 -8.144,3.062c-1.626,-0.532 -3.087,-1.476 -4.241,-2.739l1.265,-1.771Z" style="fill:#6da196;fill-rule:nonzero;"/><path id="Path_4960" d="M742.21,53.639l1.956,0.666l-0.987,2.897l-1.956,-0.667l0.987,-2.896Z" style="fill:#6da196;fill-rule:nonzero;"/><path id="Path_4961" d="M735.853,72.292l1.956,0.666l-0.987,2.897l-1.956,-0.667l0.987,-2.896Z" style="fill:#6da196;fill-rule:nonzero;"/></g><path id="Path_2201" d="M776.791,47.843c-0.447,0.587 -1.145,0.932 -1.883,0.932c-1.299,0 -2.368,-1.069 -2.368,-2.368c0,-0.535 0.181,-1.054 0.514,-1.473c0.835,0.197 1.615,0.578 2.282,1.116c0.627,0.467 1.127,1.084 1.455,1.793Z" style="fill:#6da196;fill-rule:nonzero;"/><path id="Path_2202" d="M768.535,83.829c-0.935,-0.487 -1.524,-1.458 -1.524,-2.512c0,-1.554 1.279,-2.833 2.833,-2.833c0.541,0 1.07,0.154 1.525,0.445c-0.083,1.025 -0.402,2.018 -0.932,2.9c-0.453,0.818 -1.108,1.506 -1.902,2Z" style="fill:#6da196;fill-rule:nonzero;"/><path id="Path_2203" d="M714.081,39.702c0.083,0.244 0.125,0.501 0.125,0.759c0,1.298 -1.069,2.367 -2.367,2.367c-1.013,0 -1.918,-0.65 -2.243,-1.609c0.431,-0.854 1.145,-1.534 2.019,-1.923c0.843,-0.198 1.731,-0.052 2.466,0.406Z" style="fill:#6da196;fill-rule:nonzero;"/><path id="Path_2204" d="M700.229,74.34c0.368,-0.22 0.789,-0.337 1.217,-0.337c1.299,0 2.368,1.069 2.368,2.368c0,0.79 -0.395,1.53 -1.052,1.969c-0.931,-0.218 -1.76,-0.75 -2.344,-1.508c-0.391,-0.772 -0.459,-1.669 -0.189,-2.492Z" style="fill:#6da196;fill-rule:nonzero;"/><circle id="Ellipse_340" cx="718.564" cy="61.434" r="6.837" style="fill:#6da196;"/><circle id="Ellipse_341" cx="761.252" cy="65.783" r="6.837" style="fill:#6da196;"/></g><path id="Shape-1560" d="M746.92,81.161c-1.241,-6.785 -3.1,-11.138 -14.347,-8.378c-7.018,1.721 -12.622,6.3 -11.382,13.085c1.24,6.785 8.121,9.737 15.225,8.438c7.104,-1.299 11.745,-6.359 10.504,-13.145Z" style="fill:#ffdfae;fill-rule:nonzero;"/><g id="Dollar-11"><path id="Path_2206" d="M575.664,92.132c-0.52,-0.947 -25.295,-30.476 -25.295,-30.476c0,0 -36.627,46.827 -55.227,44.8c-0.7,-0.077 26.423,42.317 26.423,42.317c0,0 63.51,-39.489 54.099,-56.641Z" style="fill:#b2dfdb;fill-rule:nonzero;"/><path id="Path_2207" d="M521.91,145.828l-0.441,-0.708c-0.054,-0.086 -5.475,-8.768 -10.791,-17.4c-11.026,-17.892 -10.956,-18 -10.575,-18.628l0.273,-0.446l0.531,0.039c15.867,1.346 47.811,-42.261 48.131,-42.7l0.628,-0.863l0.7,0.807c15.418,17.821 23.328,27.258 23.511,28.049c4.111,17.779 -48.987,50.052 -51.25,51.417l-0.717,0.433Zm-19.726,-35.431c2.511,4.481 12.9,21.3 20.277,33.114c6.377,-3.944 53.18,-33.491 49.783,-49.06c-0.932,-1.535 -13.632,-16.388 -22.468,-26.609c-4.6,6.196 -31.619,41.696 -47.592,42.555Z" style="fill:#6da196;fill-rule:nonzero;"/><g id="Group_4473"><path id="Path_2208" d="M538.117,115.059c1.565,0.053 3.117,-0.313 4.493,-1.06c2.216,-1.23 2.862,-3.118 1.922,-4.812c-0.871,-1.568 -2.265,-1.967 -5.014,-1.582c-3.278,0.549 -5.76,0.069 -7.073,-2.3c-1.451,-2.615 -0.362,-5.76 2.9,-7.57c1.262,-0.757 2.695,-1.183 4.166,-1.237l0.384,2.1c-1.272,0.017 -2.52,0.351 -3.63,0.972c-2.291,1.271 -2.4,3.124 -1.767,4.27c0.871,1.568 2.32,1.774 5.133,1.386c3.447,-0.479 5.651,0.089 7.019,2.554c1.437,2.589 0.763,5.894 -3.2,8.091c-1.485,0.849 -3.166,1.299 -4.877,1.306l-0.456,-2.118Z" style="fill:#6da196;fill-rule:nonzero;"/><path id="Path_4957" d="M532.974,97.238l1.807,-1.002l1.484,2.675l-1.806,1.003l-1.485,-2.676Z" style="fill:#6da196;fill-rule:nonzero;"/><path id="Path_4956" d="M542.536,114.47l1.807,-1.002l1.484,2.675l-1.806,1.003l-1.485,-2.676Z" style="fill:#6da196;fill-rule:nonzero;"/></g><path id="Path_2209" d="M551.886,67.712c0.029,0.149 0.044,0.3 0.044,0.452c0,1.299 -1.069,2.368 -2.368,2.368c-1.162,0 -2.16,-0.854 -2.34,-2.002c0.706,-0.487 1.512,-0.809 2.359,-0.943c0.767,-0.151 1.559,-0.108 2.305,0.125Z" style="fill:#6da196;fill-rule:nonzero;"/><path id="Path_2210" d="M573.023,97.985c-0.308,0.111 -0.634,0.168 -0.962,0.168c-1.554,0 -2.833,-1.278 -2.833,-2.833c0,-1.264 0.846,-2.382 2.063,-2.726c0.703,0.75 1.224,1.651 1.521,2.635c0.304,0.886 0.377,1.834 0.211,2.756Z" style="fill:#6da196;fill-rule:nonzero;"/><path id="Path_2211" d="M503.759,108.733c0.883,0.366 1.462,1.232 1.462,2.188c0,1.299 -1.069,2.368 -2.368,2.368c-0.338,0 -0.672,-0.073 -0.979,-0.212c-0.344,-0.893 -0.369,-1.879 -0.07,-2.788c0.419,-0.757 1.123,-1.318 1.955,-1.556Z" style="fill:#6da196;fill-rule:nonzero;"/><path id="Path_2212" d="M520.147,142.251c0.196,-1.13 1.186,-1.964 2.334,-1.964c1.299,0 2.368,1.069 2.368,2.368c0,0.135 -0.012,0.271 -0.035,0.404c-0.786,0.545 -1.737,0.802 -2.691,0.726c-0.836,-0.229 -1.547,-0.781 -1.976,-1.534Z" style="fill:#6da196;fill-rule:nonzero;"/><circle id="Ellipse_342" cx="522.882" cy="120" r="6.837" style="fill:#6da196;"/><circle id="Ellipse_343" cx="554.756" cy="91.273" r="6.837" style="fill:#6da196;"/></g><path id="Shape-1561" d="M547.122,105.368c-9.333,-1.274 -15.353,3.193 -16.3,10.159c-0.947,6.966 2.935,11.325 12.268,12.6c9.333,1.275 16.35,-1.508 17.3,-8.474c0.95,-6.966 -3.94,-13.012 -13.268,-14.285Z" style="fill:#ffdfae;fill-rule:nonzero;"/></g><g id="Person-13"><path id="Shape-1562" d="M296.698,399.082l-73.024,-0.945c1.426,10.001 4.025,19.799 7.744,29.191c7.776,18.814 54.056,110.052 54.056,110.052c-2.357,8.746 7.98,95.739 7.98,95.739l18.062,-0.707c0,0 10.379,-93.553 9.3,-105.829c-2.89,-32.926 -24.118,-127.501 -24.118,-127.501Z" style="fill:#ffdfae;fill-rule:nonzero;"/><path id="Shape-1563" d="M341.372,671.912c-0.648,-5.055 -12.5,-2 -19.424,-6.085c-14.8,-8.724 -30.445,-22.319 -30.445,-22.319l-2.823,0l0,32.925l9.476,0l0,-16.461c0,0 14.845,15.919 21.966,17.609c6.46,1.533 22.054,0.599 21.25,-5.669Z" style="fill:#adadad;fill-rule:nonzero;"/><path id="Shape-1564" d="M292.351,628.485l20.552,0l6.879,30.869c0,0 7.542,7.125 13.27,7.52c6.414,0.442 9.429,4.659 8.323,5.9c-3.355,3.75 -15.758,3.566 -20.487,1.845c-10.106,-3.682 -24.979,-19.346 -31.091,-27.746c-3.566,-4.9 2.554,-18.388 2.554,-18.388Z" style="fill:#bfbfbf;fill-rule:nonzero;"/><path id="Shape-1565" d="M284.893,398.137l-69.635,0c0,0 -20.172,6.536 -20.649,30.424c-0.407,20.354 -1.613,80.9 -1.613,80.9c-0.621,0.274 -90.488,-30.6 -90.488,-30.6l-9.031,15.393l115.722,60.971l75.694,-157.088Z" style="fill:#ffdfae;fill-rule:nonzero;"/><path id="Shape-1566" d="M51.845,511.324c4.789,-0.016 3.475,-12.007 8.168,-18.294c10.029,-13.434 24.7,-27.109 24.7,-27.109l0.363,-2.766l-30.65,-4.031l-1.222,9.288l15.326,2.016c0,0 -16.73,12.601 -19.222,19.374c-2.26,6.145 -3.401,21.542 2.537,21.522Z" style="fill:#adadad;fill-rule:nonzero;"/><path id="Shape-1567" d="M103.755,478.785l-9.922,16.63l-26.34,-3.81c0,0 -8.047,6.548 -9.186,12.177c-1.275,6.3 -5.849,8.74 -6.93,7.482c-3.281,-3.814 -1.481,-16.089 0.841,-20.553c4.964,-9.539 22.429,-22.243 31.558,-27.208c5.327,-2.895 19.979,15.282 19.979,15.282Z" style="fill:#bfbfbf;fill-rule:nonzero;"/><path id="Shape-1568" d="M251.405,254.924c24.846,1.746 18.047,-26.993 22.5,-36.452c15.939,-33.87 3.795,-40.217 0.7,-45.943c-4,-7.41 -12.769,-7.623 -12.777,-7.642c-6.513,-13.939 -36.617,-8.8 -41.385,10.652c-1.975,8.056 -26.366,-21.24 -52.426,-12.743c-18.612,6.068 -50.36,50.576 -44.038,-21.243c0,0 -30.924,-14.667 -50.794,19.275c-33.158,56.642 20.943,89.392 69.733,93.21c16.971,1.328 22.939,29.353 59.517,30.337c27.314,0.735 28.063,-30.92 48.97,-29.451Z" style="fill:#694a52;fill-rule:nonzero;"/><rect id="Shape-1569" x="225.501" y="252.3" width="41.138" height="14.292" style="fill:#be353b;"/><path id="Shape-1570" d="M229.372,288.828l43.864,-0.569l-22.783,-65.163l-19.655,-0.888l-1.426,66.62Z" style="fill:#ffdfae;fill-rule:nonzero;"/><path id="Shape-1571" d="M231.01,227.068c-1.185,2.763 1.332,18.154 5.563,21.752c15.7,7.913 26.346,-9.981 25.054,-19.338c-0.124,-3.934 -5.973,4.72 -5.209,0.859c1.446,-8.525 -12.911,-7.725 -18.588,-5.7c-5.677,2.025 -4.103,-5.456 -6.82,2.427Z" style="fill:#f4ca92;fill-rule:nonzero;"/><path id="Shape-1572" d="M390.242,266.467l10.176,7.941c0,0 -60.848,63.227 -63.658,63.193c-14.842,-0.177 -41.472,-29.306 -52.878,-41.835c-6.951,-7.635 2.961,-28.468 2.961,-28.468l48.445,40.363l54.954,-41.194Z" style="fill:#ffdfae;fill-rule:nonzero;"/><path id="Shape-1573" d="M107.558,240.431l48.73,55.915l37.66,-19.449l-0.253,22.971c0,0 -23.973,24.89 -44.191,28.088c-7.718,1.22 -50.383,-78.126 -50.383,-78.126l8.437,-9.399Z" style="fill:#ffdfae;fill-rule:nonzero;"/><path id="Shape-1574" d="M201.145,398.788c0,0 -30.425,56.147 -30.915,57.617c-2.713,8.141 2.6,13.1 12.549,15.876c2.593,0.723 16.9,-29.9 20.063,-29.46c3.163,0.44 -4.816,31.965 -1.2,32.167c42.322,2.371 111.459,-10.681 111.459,-10.681l-15.907,-70.153c0,0 -21.675,-80.807 -12.577,-93.257c0.632,-0.865 7.782,-33.657 2.2,-35.9c-8.187,-3.292 -15.248,-5.383 -15.248,-5.383l-4.932,-7.309c0,0 -6.789,5.854 -11.426,7.608c-0.583,0.22 -1.681,-0.113 -2.192,0.389c-4.932,4.856 -6.538,21.413 -6.538,21.413c0,0 -5.963,-21.4 -8.883,-22.134c-5.168,-1.3 -12.079,-7.282 -12.079,-7.282l-4.267,8.422c0,0 -9.3,2.107 -25.377,10.075c-8.838,4.381 -4.738,35.831 -4.738,35.831l10.008,92.161Z" style="fill:#ff6369;fill-rule:nonzero;"/><path id="Shape-1575" d="M219.101,214.574c-0.183,8.507 7.186,6.5 11.212,14.562c6.264,12.541 10.807,19.541 20.294,17.308c13.112,-3.085 19.641,-20.338 19.433,-45.87c-0.1,-11.96 -0.057,-17.145 -6.91,-21.229c-2.857,-1.7 0.929,6.529 -15.863,12.841c-8.465,3.182 -17.18,0.614 -17.827,9.283c-0.728,9.756 -10.181,5.758 -10.339,13.105Z" style="fill:#ffdfae;fill-rule:nonzero;"/><path id="Shape-1576" d="M93.011,233.645c0.909,-4.461 3.593,-2.192 5.33,-5.945c1.275,-2.754 -6.7,-11.244 -5.192,-13.064c2.134,-2.579 9.747,10.889 11.394,12.51c0,0 3.228,3.258 3.489,13.914l-8.706,8.942c-2.473,-2.842 -8.837,-3.984 -6.315,-16.357Z" style="fill:#ffdfae;fill-rule:nonzero;"/><path id="Shape-1577" d="M405.326,259.586c-0.909,-4.461 -3.592,-2.193 -5.33,-5.945c-1.276,-2.755 6.7,-11.244 5.191,-13.064c-2.134,-2.58 -9.746,10.889 -11.393,12.509c0,0 -3.228,3.259 -3.489,13.915l8.705,8.942c2.478,-2.838 8.842,-3.981 6.316,-16.357Z" style="fill:#ffdfae;fill-rule:nonzero;"/><path id="Shape-1578" d="M227.748,205.482c-1.47,0.006 -2.87,-0.633 -3.829,-1.747l0.625,-0.571c0.874,1.033 2.198,1.578 3.545,1.459c6.555,-0.45 15.474,-13.312 15.563,-13.443l0.7,0.48c-0.374,0.544 -9.242,13.329 -16.2,13.807c-0.139,0.01 -0.273,0.015 -0.404,0.015Z" style="fill:#694a52;fill-rule:nonzero;"/><path id="Shape-1579" d="M226.133,207.732c-1.773,-0.004 -3.541,-0.203 -5.271,-0.591l0.183,-0.827c19.353,4.29 29.608,-17.041 29.709,-17.257l0.766,0.359c-0.094,0.201 -8.793,18.316 -25.387,18.316Z" style="fill:#694a52;fill-rule:nonzero;"/><circle id="Shape-1580" cx="232.627" cy="252.08" r="2.722" style="fill:#fff;"/><circle id="Shape-1581" cx="237.746" cy="253.638" r="2.722" style="fill:#fff;"/><circle id="Shape-1582" cx="242.939" cy="254.862" r="2.722" style="fill:#fff;"/><circle id="Shape-1583" cx="248.243" cy="254.491" r="2.722" style="fill:#fff;"/><circle id="Shape-1584" cx="253.437" cy="253.267" r="2.722" style="fill:#fff;"/><circle id="Shape-1585" cx="257.962" cy="250.559" r="2.722" style="fill:#fff;"/><circle id="Shape-1586" cx="389.381" cy="268.04" r="1.537" style="fill:#fff;"/><circle id="Shape-1587" cx="391.265" cy="270.014" r="1.537" style="fill:#fff;"/><circle id="Shape-1588" cx="392.816" cy="272.325" r="1.537" style="fill:#fff;"/><circle id="Shape-1589" cx="394.89" cy="274.29" r="1.537" style="fill:#fff;"/><circle id="Shape-1590" cx="397.107" cy="275.929" r="1.537" style="fill:#fff;"/></g></g></svg>