<?xml version="1.0" encoding="UTF-8" standalone="no"?><!DOCTYPE svg PUBLIC "-//W3C//DTD SVG 1.1//EN" "http://www.w3.org/Graphics/SVG/1.1/DTD/svg11.dtd"><svg width="100%" height="100%" viewBox="0 0 500 294" version="1.1" xmlns="http://www.w3.org/2000/svg" xmlns:xlink="http://www.w3.org/1999/xlink" xml:space="preserve" xmlns:serif="http://www.serif.com/" style="fill-rule:evenodd;clip-rule:evenodd;stroke-linejoin:round;stroke-miterlimit:2;"><g><g id="Laptop"><path id="Shape-47" d="M460.215,293.707l-416.092,0c-44.119,0 -44.119,-20.026 -44.119,-20.026l499.992,0c0,0 0,20.026 -39.781,20.026Z" style="fill:#d8d6dd;fill-rule:nonzero;"/><path id="Shape-48" d="M52.207,269.37l0,-235.571c0,-18.586 10.237,-33.799 22.749,-33.799l350.089,0c12.511,0 22.748,15.208 22.748,33.799l0,235.571l-395.586,0Z" style="fill:#d8d6dd;fill-rule:nonzero;"/><path id="Shape-49" d="M0.004,273.677l0,-8.896c-0.077,-1.417 1.014,-2.651 2.429,-2.749l495.133,0c1.416,0.098 2.507,1.332 2.43,2.749l0,8.902l-499.992,-0.006Z" style="fill:#d8d6dd;fill-rule:nonzero;"/><rect id="Shape-50" x="69.341" y="30.723" width="361.317" height="220.668" style="fill:#fff;"/><path id="Shape-51" d="M293.641,268.511l-86.38,0c-9.396,0 -9.158,-6.632 -9.158,-6.632l103.785,0.38c0,0 0.713,6.252 -8.247,6.252Z" style="fill:#fff;fill-rule:nonzero;"/><path id="Shape-52" d="M250.319,12.117c2.37,0 4.32,1.95 4.32,4.32c0,0 0,0 0,0c0,2.369 -1.95,4.319 -4.319,4.319l-0.001,0c-2.369,0 -4.319,-1.95 -4.319,-4.319c0,0 0,0 0,0c0,-2.37 1.95,-4.32 4.319,-4.32Z" style="fill:#fff;fill-rule:nonzero;"/></g><rect id="Shape-501" serif:id="Shape-50" x="69.341" y="30.723" width="361.317" height="220.668" style="fill:#fff;"/><clipPath id="_clip1"><rect x="69.341" y="30.723" width="361.317" height="220.668"/></clipPath><g clip-path="url(#_clip1)"><g id="Content-61"><path id="Shape-848" d="M76.633,30.723l346.734,0c4,0 7.292,3.292 7.292,7.292l0,4.297l-361.318,0l0,-4.297c0,-4 3.292,-7.292 7.292,-7.292Z" style="fill:#f2f5f8;fill-rule:nonzero;"/><circle id="Shape-849" cx="75.823" cy="36.517" r="2.104" style="fill:#fa538d;"/><circle id="Shape-850" cx="84.097" cy="36.517" r="2.104" style="fill:#fab353;"/><circle id="Shape-851" cx="92.372" cy="36.517" r="2.104" style="fill:#9dc925;"/><rect id="Shape-852" x="78.083" y="55.937" width="40.82" height="11.837" style="fill:#ff6369;fill-rule:nonzero;"/><rect id="Shape-856" x="113.302" y="61.96" width="5.4" height="5.815" style="fill:#ff6369;fill-rule:nonzero;"/><path id="Shape-857" d="M78.439,103.149l61.586,0c0.902,0.017 1.635,0.763 1.635,1.664c0,0.902 -0.733,1.648 -1.635,1.665l-61.586,0c-0.902,-0.017 -1.635,-0.763 -1.635,-1.665c0,-0.901 0.733,-1.647 1.635,-1.664Z" style="fill:#e5e8f5;fill-rule:nonzero;"/><path id="Shape-858" d="M146.639,103.149l94.338,0c0.901,0.017 1.634,0.763 1.634,1.664c0,0.902 -0.733,1.648 -1.634,1.665l-94.338,0c-0.902,-0.017 -1.635,-0.763 -1.635,-1.665c0,-0.901 0.733,-1.647 1.635,-1.664Z" style="fill:#e5e8f5;fill-rule:nonzero;"/><path id="Shape-859" d="M78.439,111.331l146.354,0c0.01,0 0.021,0 0.031,0c0.913,0 1.664,0.751 1.664,1.665c0,0.913 -0.751,1.664 -1.664,1.664c-0.01,0 -0.021,0 -0.031,0l-146.354,0c-0.902,-0.017 -1.635,-0.763 -1.635,-1.664c0,-0.902 0.733,-1.648 1.635,-1.665Z" style="fill:#e5e8f5;fill-rule:nonzero;"/><path id="Shape-860" d="M78.439,119.513l22.67,0c0.902,0.017 1.634,0.763 1.634,1.665c0,0.901 -0.732,1.648 -1.634,1.664l-22.67,0c-0.902,-0.016 -1.635,-0.763 -1.635,-1.664c0,-0.902 0.733,-1.648 1.635,-1.665Z" style="fill:#e5e8f5;fill-rule:nonzero;"/><path id="Shape-861" d="M110.034,119.513l44.633,0c0.902,0.017 1.634,0.763 1.634,1.665c0,0.901 -0.732,1.648 -1.634,1.664l-44.633,0c-0.901,-0.016 -1.634,-0.763 -1.634,-1.664c0,-0.902 0.733,-1.648 1.634,-1.665Z" style="fill:#e5e8f5;fill-rule:nonzero;"/><path id="Shape-862" d="M78.439,126.819l44.247,0c0.902,0.016 1.635,0.762 1.635,1.664c0,0.902 -0.733,1.648 -1.635,1.664l-44.247,0c-0.902,-0.016 -1.635,-0.762 -1.635,-1.664c0,-0.902 0.733,-1.648 1.635,-1.664Z" style="fill:#e5e8f5;fill-rule:nonzero;"/><path id="Shape-863" d="M131.997,126.819l44.633,0c0.901,0.016 1.634,0.762 1.634,1.664c0,0.902 -0.733,1.648 -1.634,1.664l-44.633,0c-0.902,-0.016 -1.635,-0.762 -1.635,-1.664c0,-0.902 0.733,-1.648 1.635,-1.664Z" style="fill:#e5e8f5;fill-rule:nonzero;"/><path id="Shape-864" d="M162.436,119.513l70.064,0c0.01,0 0.02,0 0.03,0c0.913,0 1.665,0.752 1.665,1.665c0,0.913 -0.752,1.664 -1.665,1.664c-0.01,0 -0.02,0 -0.03,0l-70.064,0c-0.902,-0.016 -1.634,-0.763 -1.634,-1.664c0,-0.902 0.732,-1.648 1.634,-1.665Z" style="fill:#e5e8f5;fill-rule:nonzero;"/><path id="Shape-865" d="M78.439,143.584l61.586,0c0.902,0.017 1.635,0.763 1.635,1.664c0,0.902 -0.733,1.648 -1.635,1.665l-61.586,0c-0.902,-0.017 -1.635,-0.763 -1.635,-1.665c0,-0.901 0.733,-1.647 1.635,-1.664Z" style="fill:#e5e8f5;fill-rule:nonzero;"/><path id="Shape-866" d="M146.639,143.584l94.338,0c0.901,0.017 1.634,0.763 1.634,1.664c0,0.902 -0.733,1.648 -1.634,1.665l-94.338,0c-0.902,-0.017 -1.635,-0.763 -1.635,-1.665c0,-0.901 0.733,-1.647 1.635,-1.664Z" style="fill:#e5e8f5;fill-rule:nonzero;"/><path id="Shape-867" d="M78.439,151.766l146.354,0c0.01,0 0.021,0 0.031,0c0.913,0 1.664,0.751 1.664,1.665c0,0.913 -0.751,1.664 -1.664,1.664c-0.01,0 -0.021,0 -0.031,0l-146.354,0c-0.902,-0.017 -1.635,-0.763 -1.635,-1.664c0,-0.902 0.733,-1.648 1.635,-1.665Z" style="fill:#e5e8f5;fill-rule:nonzero;"/><path id="Shape-868" d="M102.773,161.612c0,-0.918 -0.745,-1.664 -1.664,-1.664l-22.671,0c-0.918,0 -1.664,0.746 -1.664,1.664c0,0.919 0.746,1.664 1.664,1.664l22.671,0c0.919,0 1.664,-0.745 1.664,-1.664Z" style="fill:#e5e8f5;"/><path id="Shape-869" d="M156.332,161.612c0,-0.918 -0.746,-1.664 -1.664,-1.664l-44.634,0c-0.919,0 -1.664,0.746 -1.664,1.664c0,0.919 0.745,1.664 1.664,1.664l44.634,0c0.918,0 1.664,-0.745 1.664,-1.664Z" style="fill:#e5e8f5;"/><path id="Shape-870" d="M124.351,168.918c0,-0.918 -0.746,-1.664 -1.664,-1.664l-44.249,0c-0.918,0 -1.664,0.746 -1.664,1.664c0,0.919 0.746,1.664 1.664,1.664l44.249,0c0.918,0 1.664,-0.745 1.664,-1.664Z" style="fill:#e5e8f5;"/><path id="Shape-871" d="M178.294,168.918c0,-0.918 -0.745,-1.664 -1.664,-1.664l-44.634,0c-0.918,0 -1.664,0.746 -1.664,1.664c0,0.919 0.746,1.664 1.664,1.664l44.634,0c0.919,0 1.664,-0.745 1.664,-1.664Z" style="fill:#e5e8f5;"/><path id="Shape-872" d="M162.436,159.948l70.064,0c0.01,0 0.02,0 0.03,0c0.913,0 1.665,0.751 1.665,1.664c0,0.913 -0.752,1.665 -1.665,1.665c-0.01,0 -0.02,0 -0.03,-0.001l-70.064,0c-0.902,-0.016 -1.634,-0.762 -1.634,-1.664c0,-0.901 0.732,-1.648 1.634,-1.664Z" style="fill:#e5e8f5;fill-rule:nonzero;"/><path id="Shape-873" d="M141.69,187.102c0,-0.919 -0.746,-1.665 -1.664,-1.665l-61.588,0c-0.918,0 -1.664,0.746 -1.664,1.665c0,0.918 0.746,1.664 1.664,1.664l61.588,0c0.918,0 1.664,-0.746 1.664,-1.664Z" style="fill:#e5e8f5;"/><path id="Shape-874" d="M146.639,185.437l94.338,0c0.901,0.017 1.634,0.763 1.634,1.665c0,0.901 -0.733,1.647 -1.634,1.664l-94.338,0c-0.902,-0.017 -1.635,-0.763 -1.635,-1.664c0,-0.902 0.733,-1.648 1.635,-1.665Z" style="fill:#e5e8f5;fill-rule:nonzero;"/><path id="Shape-875" d="M226.458,195.284c0,-0.919 -0.746,-1.664 -1.664,-1.664l-146.356,0c-0.918,0 -1.664,0.745 -1.664,1.664c0,0.918 0.746,1.664 1.664,1.664l146.356,0c0.918,0 1.664,-0.746 1.664,-1.664Z" style="fill:#e5e8f5;"/><path id="Shape-876" d="M102.773,203.466c0,-0.919 -0.745,-1.664 -1.664,-1.664l-22.671,0c-0.918,0 -1.664,0.745 -1.664,1.664c0,0.919 0.746,1.664 1.664,1.664l22.671,0c0.919,0 1.664,-0.745 1.664,-1.664Z" style="fill:#e5e8f5;"/><path id="Shape-877" d="M156.332,203.466c0,-0.919 -0.746,-1.664 -1.664,-1.664l-44.634,0c-0.919,0 -1.664,0.745 -1.664,1.664c0,0.919 0.745,1.664 1.664,1.664l44.634,0c0.918,0 1.664,-0.745 1.664,-1.664Z" style="fill:#e5e8f5;"/><path id="Shape-878" d="M124.351,210.771c0,-0.918 -0.746,-1.664 -1.664,-1.664l-44.249,0c-0.918,0 -1.664,0.746 -1.664,1.664c0,0.919 0.746,1.665 1.664,1.665l44.249,0c0.918,0 1.664,-0.746 1.664,-1.665Z" style="fill:#e5e8f5;"/><path id="Shape-879" d="M178.294,210.771c0,-0.918 -0.745,-1.664 -1.664,-1.664l-44.634,0c-0.918,0 -1.664,0.746 -1.664,1.664c0,0.919 0.746,1.665 1.664,1.665l44.634,0c0.919,0 1.664,-0.746 1.664,-1.665Z" style="fill:#e5e8f5;"/><path id="Shape-880" d="M162.436,201.802l70.064,0c0.01,0 0.02,-0.001 0.03,-0.001c0.913,0 1.665,0.752 1.665,1.665c0,0.913 -0.752,1.665 -1.665,1.665c-0.01,0 -0.02,-0.001 -0.03,-0.001l-70.064,0c-0.902,-0.016 -1.634,-0.762 -1.634,-1.664c0,-0.902 0.732,-1.648 1.634,-1.664Z" style="fill:#e5e8f5;fill-rule:nonzero;"/><path id="Shape-881" d="M325.629,59.329l22.641,0c2.188,0 3.989,1.801 3.989,3.99c0,2.189 -1.801,3.99 -3.989,3.99l-22.641,0c-2.189,0 -3.99,-1.801 -3.99,-3.99c0,-2.189 1.801,-3.99 3.99,-3.99Z" style="fill:#bbc0d6;fill-rule:nonzero;"/><path id="Shape-883" d="M78.476,80.432l16.389,0c0.01,0 0.02,0 0.031,0c0.913,0 1.664,0.751 1.664,1.665c0,0.913 -0.751,1.664 -1.664,1.664c-0.011,0 -0.021,0 -0.031,0l-16.389,0c-0.902,-0.017 -1.634,-0.763 -1.634,-1.664c0,-0.902 0.732,-1.648 1.634,-1.665Z" style="fill:#e5e8f5;fill-rule:nonzero;"/><path id="Shape-884" d="M103.785,80.432l16.389,0c0.01,0 0.02,0 0.03,0c0.914,0 1.665,0.751 1.665,1.665c0,0.913 -0.751,1.664 -1.665,1.664c-0.01,0 -0.02,0 -0.03,0l-16.389,0c-0.902,-0.017 -1.635,-0.763 -1.635,-1.664c0,-0.902 0.733,-1.648 1.635,-1.665Z" style="fill:#e5e8f5;fill-rule:nonzero;"/><path id="Shape-885" d="M132.705,80.432l16.389,0c0.01,0 0.021,0 0.031,0c0.913,0 1.664,0.751 1.664,1.665c0,0.913 -0.751,1.664 -1.664,1.664c-0.01,0 -0.021,0 -0.031,0l-16.389,0c-0.902,-0.017 -1.634,-0.763 -1.634,-1.664c0,-0.902 0.732,-1.648 1.634,-1.665Z" style="fill:#e5e8f5;fill-rule:nonzero;"/><path id="Shape-886" d="M135.544,58.861l174.203,0c2.471,0 4.504,2.033 4.504,4.503c0,2.47 -2.033,4.503 -4.504,4.503l-174.203,0c-2.471,0 -4.504,-2.033 -4.504,-4.503c0,-2.47 2.033,-4.503 4.504,-4.503Z" style="fill:#e5e8f5;fill-rule:nonzero;"/><path id="Shape-887" d="M163.069,80.432l16.389,0c0.01,0 0.02,0 0.03,0c0.914,0 1.665,0.751 1.665,1.665c0,0.913 -0.751,1.664 -1.665,1.664c-0.01,0 -0.02,0 -0.03,0l-16.389,0c-0.902,-0.017 -1.635,-0.763 -1.635,-1.664c0,-0.902 0.733,-1.648 1.635,-1.665Z" style="fill:#e5e8f5;fill-rule:nonzero;"/><path id="Shape-888" d="M191.989,80.432l16.389,0c0.01,0 0.021,0 0.031,0c0.913,0 1.664,0.751 1.664,1.665c0,0.913 -0.751,1.664 -1.664,1.664c-0.01,0 -0.021,0 -0.031,0l-16.389,0c-0.902,-0.017 -1.634,-0.763 -1.634,-1.664c0,-0.902 0.732,-1.648 1.634,-1.665Z" style="fill:#e5e8f5;fill-rule:nonzero;"/></g><g id="Chart-10"><path id="Background-2" d="M430.659,104.364c0,-4.416 -3.585,-8 -8,-8l-169.888,0c-4.415,0 -8,3.584 -8,8l0,106.495c0,4.415 3.585,8 8,8l169.888,0c4.415,0 8,-3.585 8,-8l0,-106.495Z" style="fill:none;"/><circle id="Shape-1208" cx="337.435" cy="157.563" r="37.416" style="fill:#e5e8f5;"/><path id="Shape-1209" d="M386.047,163.477c0,23.147 -19.047,42.194 -42.193,42.194l0,-42.194l42.193,0Z" style="fill:#ff6369;fill-rule:nonzero;"/><path id="Shape-1210" d="M331.857,144.079c0,0 -23.615,-34.972 -23.591,-34.988c7.003,-4.627 15.197,-7.131 23.591,-7.206l0,42.194Z" style="fill:#b0c9f1;fill-rule:nonzero;"/><path id="Shape-1211" d="M381.322,155.378l-42.194,0l0,-42.194c23.147,0 42.193,19.047 42.194,42.194Z" style="fill:#b1da96;fill-rule:nonzero;"/><path id="Shape-1212" d="M331.947,158.926l0,42.194c-0.001,0 -0.001,0 -0.002,0c-23.146,0 -42.193,-19.046 -42.193,-42.193c0,-14.564 7.982,-28.509 18.603,-34.988c0.025,-0.016 23.592,34.987 23.592,34.987Z" style="fill:#f9b25f;fill-rule:nonzero;"/><path id="Shape-1213" d="M366.645,140.219l-0.708,-0.708l13.975,-13.976l32.138,0l0,1.002l-31.723,0l-13.682,13.682Z" style="fill:#b1da96;fill-rule:nonzero;"/><rect id="Shape-1214" x="381.026" y="119.439" width="30.981" height="3.337" style="fill:#b1da96;"/><path id="Shape-1215" d="M402.128,206.081l-32.137,0l-13.976,-13.976l0.708,-0.708l13.683,13.683l31.723,0l-0.001,1.001Z" style="fill:#ff6369;fill-rule:nonzero;"/><rect id="Shape-1216" x="374.479" y="199.377" width="27.59" height="3.337" style="fill:#ff6369;"/><path id="Shape-1217" d="M297.815,172.372l-13.683,-13.684l-31.724,0l0,-1.002l32.137,0l13.976,13.976l-0.706,0.71Z" style="fill:#f9b25f;fill-rule:nonzero;"/><rect id="Shape-1218" x="252.468" y="151.604" width="19.542" height="3.337" style="fill:#f9b25f;"/><rect id="Shape-1219" x="272.946" y="112.407" width="17.863" height="3.337" style="fill:#b0c9f1;"/><path id="Shape-1220" d="M306.524,120.069l-32.138,0l0,-1.002l31.723,0l8.93,-8.929l0.708,0.708l-9.223,9.223Z" style="fill:#b0c9f1;fill-rule:nonzero;"/></g></g></g></svg>