<?xml version="1.0" encoding="UTF-8" standalone="no"?><!DOCTYPE svg PUBLIC "-//W3C//DTD SVG 1.1//EN" "http://www.w3.org/Graphics/SVG/1.1/DTD/svg11.dtd"><svg width="100%" height="100%" viewBox="0 0 214 178" version="1.1" xmlns="http://www.w3.org/2000/svg" xmlns:xlink="http://www.w3.org/1999/xlink" xml:space="preserve" xmlns:serif="http://www.serif.com/" style="fill-rule:evenodd;clip-rule:evenodd;stroke-linejoin:round;stroke-miterlimit:2;"><g><path id="Background-6" d="M11.836,105.909c-24.197,29.672 -12.373,56.351 45.482,56.908c26.376,0.253 36.611,25.772 75.922,8.019c38.895,-17.566 58.054,8.968 71.772,-7.102c8.877,-10.398 9.716,-55.817 7.873,-70.98c-4.32,-35.528 -43.125,-62.085 -79.597,-62.085c-28.015,0 -42.168,34.006 -81.712,31.366c-28.353,-1.891 -23.527,23.994 -39.74,43.874Z" style="fill:#f2f5f8;fill-rule:nonzero;"/><g id="Person-34"><path id="Shape-746" d="M73.225,50.032c0,0 31.343,-19.339 30.822,-34.454c-0.556,-16.009 -9.069,-15.577 -13.048,-15.577c-21.177,0 -30.019,32.626 -30.019,32.626c-17.264,-6.994 -28.426,27.082 -42.852,28.553c-19.698,2.012 -22.73,22.643 -12.064,31.842c26.32,22.7 60.553,-6.868 67.161,-42.99Z" style="fill:#37474f;fill-rule:nonzero;"/><path id="Shape-747" d="M70.136,62.243l25.211,3.153l-6.935,-29.485l-5.67,-5.695l-12.606,32.027Z" style="fill:#ffdfae;fill-rule:nonzero;"/><path id="Shape-748" d="M89.232,33.134l-6.379,-2.974c0,0 -3.135,6.255 -1.85,7.972c1.385,1.851 6.224,1.243 8.229,0.748c1.62,-0.403 0,-5.746 0,-5.746Z" style="fill:#f4ca92;fill-rule:nonzero;"/><path id="Shape-750" d="M95.677,147.699c-5.844,8.687 -29.3,13.341 -29.3,13.341c0,0 -15.842,-88.201 1.657,-109.854c7.745,-9.585 27.342,10.332 36.056,19.047c19.685,19.683 -8.413,77.466 -8.413,77.466Z" style="fill:#ff6369;fill-rule:nonzero;"/><g id="Laptop"><path id="Shape-751" d="M182.856,104.925l-22.617,10.807c-0.395,0.188 -0.826,0.285 -1.263,0.285c-1.61,0 -2.935,-1.325 -2.935,-2.935c0,-0.115 0.007,-0.229 0.02,-0.342l5.434,-45.733c0.119,-0.998 0.741,-1.867 1.648,-2.301l22.617,-10.809c0.394,-0.188 0.826,-0.285 1.262,-0.285c1.611,0 2.936,1.325 2.936,2.935c0,0.115 -0.007,0.229 -0.02,0.342l-5.435,45.734c-0.118,0.998 -0.74,1.868 -1.647,2.302Z" style="fill:#fff;fill-rule:nonzero;"/><path id="Shape-752" d="M158.981,117.143l-0.007,0c-2.226,0 -4.057,-1.831 -4.057,-4.056c0,-0.16 0.009,-0.32 0.028,-0.479l5.434,-45.733c0.16,-1.381 1.023,-2.585 2.28,-3.181l22.617,-10.809c0.546,-0.261 1.144,-0.397 1.749,-0.397c2.226,0 4.057,1.832 4.057,4.057c0,0.16 -0.01,0.32 -0.029,0.479l-5.433,45.733c-0.16,1.382 -1.023,2.587 -2.28,3.184l-22.617,10.806c-0.544,0.261 -1.139,0.396 -1.742,0.396Zm28.041,-62.407c-0.269,0 -0.535,0.06 -0.777,0.177l-22.621,10.809c-0.56,0.266 -0.945,0.803 -1.016,1.419l-5.431,45.731c-0.008,0.071 -0.012,0.142 -0.012,0.213c0,0.993 0.816,1.809 1.808,1.809c0.271,0 0.537,-0.06 0.781,-0.177l22.617,-10.806c0.561,-0.267 0.945,-0.804 1.017,-1.421l5.434,-45.733c0.008,-0.071 0.012,-0.142 0.012,-0.214c0,-0.992 -0.816,-1.809 -1.809,-1.809l-0.003,0l0,0.002Z" style="fill:#4d4d4d;fill-rule:nonzero;"/></g><path id="Shape-755" d="M87.694,25.864c-6.447,-6.04 -7.775,-0.019 -7.283,2.354c0.505,2.46 4.466,5.157 5.839,7.513c2.834,4.863 9.799,6.839 12.773,6.839c3.044,0 2.868,-4.998 4.364,-12.349c0.54,-2.657 4.082,1.179 3.094,-2.693c-0.46,-1.798 -2.192,-6.39 -2.115,-8.322c0.176,-4.55 -0.328,-7.881 -1.128,-10.102c0,0 -1.384,11.371 -15.788,9.945l0.244,6.815Z" style="fill:#ffdfae;fill-rule:nonzero;"/><path id="Shape-756" d="M184.641,106.355c-0.118,0.446 -0.429,0.817 -0.847,1.012l-58.096,27.046c-0.479,0.214 -0.998,0.325 -1.522,0.325c-2.046,0 -3.729,-1.683 -3.729,-3.729c0,-0.326 0.043,-0.65 0.127,-0.965l62.876,-29.132c0.206,-0.096 0.43,-0.145 0.656,-0.145c0.854,0 1.557,0.703 1.557,1.557c0,0.135 -0.018,0.27 -0.053,0.401l-0.969,3.63Z" style="fill:#e6e6e6;fill-rule:nonzero;"/><path id="Shape-757" d="M150.496,111.696c0,0 -29.869,36.76 -52.182,30.135c-16.406,-4.87 -25.087,-62.418 -25.087,-62.418l9.907,-3.132c19.132,4.37 20.958,51.777 20.958,51.777l42.533,-21.783l3.871,5.421Z" style="fill:#ffdfae;fill-rule:nonzero;"/><path id="Shape-758" d="M155.206,104.245c0,-2.165 -1.635,-1.363 -2.142,-3.277c-0.372,-1.405 4.669,-4.607 4.08,-5.596c-0.836,-1.405 -6.217,4.15 -7.244,4.748c0,0 -2.023,1.212 -3.286,6.154l3.877,5.42c1.592,-1.088 4.715,-1.44 4.715,-7.449Z" style="fill:#ffdfae;fill-rule:nonzero;"/></g><path id="Shape-745" d="M197.678,168.608c-7.958,2.165 -17.869,-2.73 -31.52,-3.843l0,-0.092l31.52,3.935Z" style="fill:#f4ca92;fill-rule:nonzero;"/><path id="Shape-749" d="M175.699,166.135c-10.917,-2.134 -24.61,-3.36 -42.459,4.701c-35.544,16.052 -47.317,-3.272 -68.744,-7.31c0.565,-0.827 1.191,-1.656 1.883,-2.486l107.496,-48.951l1.824,54.046Z" style="fill:#b7caeb;fill-rule:nonzero;"/><path id="Shape-754" d="M202.006,166.541c-12.919,-8.391 -24.798,-17.776 -27.141,-25.088l-0.992,-29.359c4.303,-1.058 21.019,13.635 37.85,29.847c-1.362,9.772 -3.516,18.051 -6.711,21.793c-0.973,1.14 -1.973,2.065 -3.006,2.807Z" style="fill:#ffdfae;fill-rule:nonzero;"/><path d="M175.434,88.826c-0.799,1.098 -1.717,2.09 -2.752,2.938c-1.464,1.2 -3.647,1.949 -5.383,0.687c-2.098,-1.527 -2.396,-4.432 -2.419,-6.772c-0.058,-5.95 1.874,-12.202 5.814,-16.412c1.184,-1.265 2.443,-2.326 4.37,-2.309c2.812,0.105 4.138,3.693 4.356,6.025c0.405,4.324 -0.344,9.019 -2.257,12.951l2.94,3.568c0.246,0.299 0.243,0.662 0.132,1.136l-1.311,2.995c-0.299,0.247 -0.742,0.204 -0.988,-0.095l-2.502,-4.712Zm-0.495,-19.45c-2.988,0.135 -5.092,4.756 -6.4,8.815c-1.281,3.972 -2.202,8.728 -0.339,11.713c1.79,2.871 7.249,-4.59 8.503,-11.448c0.517,-2.825 0.897,-5.979 -0.531,-8.269c-0.27,-0.433 -0.627,-0.823 -1.233,-0.811Z" style="fill:#9faebd;"/></g></svg>