<?xml version="1.0" encoding="UTF-8" standalone="no"?><!DOCTYPE svg PUBLIC "-//W3C//DTD SVG 1.1//EN" "http://www.w3.org/Graphics/SVG/1.1/DTD/svg11.dtd"><svg width="100%" height="100%" viewBox="0 0 234 24" version="1.1" xmlns="http://www.w3.org/2000/svg" xmlns:xlink="http://www.w3.org/1999/xlink" xml:space="preserve" xmlns:serif="http://www.serif.com/" style="fill-rule:evenodd;clip-rule:evenodd;stroke-linejoin:round;stroke-miterlimit:2;"><g id="Logo"><g><path d="M14.194,5.224c0.216,0.738 0.454,1.571 0.714,2.498c0.261,0.927 0.54,1.885 0.836,2.875c0.296,0.99 0.597,1.98 0.903,2.97c0.306,0.99 0.602,1.908 0.89,2.754c0.235,-0.918 0.474,-1.917 0.718,-2.997c0.245,-1.08 0.475,-2.196 0.692,-3.348c0.217,-1.152 0.43,-2.299 0.637,-3.442c0.208,-1.143 0.403,-2.246 0.584,-3.308l4.375,0c-0.634,3.132 -1.362,6.309 -2.186,9.531c-0.824,3.222 -1.716,6.282 -2.676,9.18l-3.852,0c-0.629,-1.728 -1.24,-3.541 -1.833,-5.44c-0.593,-1.899 -1.177,-3.803 -1.752,-5.711c-0.576,1.908 -1.153,3.812 -1.729,5.711c-0.577,1.899 -1.181,3.712 -1.812,5.44l-3.849,0c-0.959,-2.898 -1.849,-5.958 -2.671,-9.18c-0.823,-3.222 -1.55,-6.399 -2.183,-9.531l4.563,0c0.181,1.062 0.38,2.165 0.597,3.308c0.217,1.143 0.443,2.29 0.678,3.442c0.235,1.152 0.475,2.268 0.719,3.348c0.245,1.08 0.493,2.079 0.747,2.997c0.324,-0.882 0.64,-1.818 0.946,-2.808c0.307,-0.99 0.604,-1.98 0.893,-2.97c0.288,-0.99 0.554,-1.944 0.798,-2.862c0.243,-0.918 0.464,-1.737 0.662,-2.457l3.591,0Z" style="fill:#fff;fill-rule:nonzero;"/><path d="M37.689,21.938c-0.208,-0.651 -0.432,-1.319 -0.672,-2.004c-0.239,-0.685 -0.478,-1.367 -0.716,-2.046l-7.307,0c-0.237,0.682 -0.473,1.366 -0.711,2.052c-0.237,0.686 -0.458,1.352 -0.663,1.998l-4.374,0c0.704,-2.017 1.372,-3.88 2.004,-5.589c0.632,-1.711 1.25,-3.321 1.855,-4.833c0.605,-1.512 1.201,-2.948 1.788,-4.307c0.586,-1.359 1.196,-2.686 1.828,-3.982l3.992,0c0.615,1.296 1.221,2.623 1.818,3.982c0.597,1.359 1.198,2.795 1.804,4.307c0.606,1.512 1.225,3.122 1.858,4.833c0.633,1.709 1.302,3.572 2.007,5.589l-4.511,0Zm-5.06,-14.472c-0.094,0.271 -0.232,0.641 -0.413,1.109c-0.181,0.467 -0.387,1.008 -0.618,1.621c-0.231,0.613 -0.49,1.288 -0.775,2.025c-0.286,0.737 -0.576,1.51 -0.871,2.319l5.35,0c-0.286,-0.812 -0.563,-1.587 -0.832,-2.327c-0.268,-0.739 -0.523,-1.415 -0.764,-2.028c-0.242,-0.613 -0.454,-1.153 -0.636,-1.621c-0.182,-0.467 -0.33,-0.833 -0.441,-1.098Z" style="fill:#fff;fill-rule:nonzero;"/><path d="M57.104,18.319l0,3.619l-12.501,0l0,-18.711l4.212,0l0,15.093l8.289,0Z" style="fill:#fff;fill-rule:nonzero;"/><path d="M72.305,18.319l0,3.619l-12.501,0l0,-18.711l4.212,0l0,15.093l8.289,0Z" style="fill:#fff;fill-rule:nonzero;"/><path d="M75.005,21.938l0,-18.711l12.636,0l0,3.537l-8.424,0l0,3.672l7.479,0l0,3.456l-7.479,0l0,4.509l9.045,0l0,3.537l-13.257,0Z" style="fill:#fff;fill-rule:nonzero;"/><path d="M105.245,3.227l0,3.59l-5.643,0l0,15.121l-4.212,-0.001l0,-15.12l-5.643,0l0,-3.59l15.498,0Z" style="fill:#fff;fill-rule:nonzero;"/></g><path d="M137.586,5.063l-20.102,0c-0.466,0 -0.844,-0.378 -0.844,-0.844c0,-0.466 0.378,-0.844 0.844,-0.844l20.25,0c0.466,0 0.843,-0.378 0.843,-0.844c0,-1.398 -1.133,-2.531 -2.531,-2.531l-19.406,0c-1.864,0 -3.375,1.511 -3.375,3.375l0,16.875c0,1.864 1.511,3.375 3.375,3.375l20.946,0c1.478,0 2.679,-1.135 2.679,-2.531l0,-13.5c0,-1.396 -1.201,-2.532 -2.679,-2.532Zm-2.384,10.969c-0.931,0 -1.687,-0.755 -1.687,-1.687c0,-0.932 0.756,-1.688 1.687,-1.688c0.932,0 1.688,0.756 1.688,1.688c0,0.932 -0.756,1.687 -1.688,1.687Z" style="fill:#fff;fill-rule:nonzero;"/><g><path d="M155.075,18.725c0.594,-0.001 1.084,-0.05 1.471,-0.149c0.387,-0.099 0.698,-0.234 0.932,-0.405c0.234,-0.171 0.396,-0.374 0.486,-0.608c0.09,-0.234 0.135,-0.495 0.135,-0.782c0,-0.613 -0.288,-1.121 -0.864,-1.526c-0.576,-0.405 -1.566,-0.842 -2.97,-1.309c-0.612,-0.216 -1.224,-0.464 -1.836,-0.743c-0.612,-0.279 -1.161,-0.63 -1.647,-1.053c-0.486,-0.423 -0.882,-0.936 -1.188,-1.539c-0.306,-0.603 -0.459,-1.336 -0.459,-2.2c0,-0.864 0.162,-1.643 0.486,-2.336c0.324,-0.693 0.783,-1.282 1.377,-1.768c0.594,-0.486 1.314,-0.86 2.16,-1.121c0.846,-0.261 1.8,-0.391 2.862,-0.391c1.26,0 2.349,0.135 3.267,0.405c0.918,0.27 1.674,0.567 2.268,0.891l-1.215,3.321c-0.522,-0.27 -1.103,-0.509 -1.742,-0.716c-0.639,-0.207 -1.408,-0.31 -2.308,-0.31c-1.008,0 -1.733,0.139 -2.174,0.418c-0.441,0.279 -0.661,0.706 -0.661,1.283c0,0.341 0.081,0.629 0.243,0.864c0.162,0.233 0.391,0.445 0.688,0.634c0.297,0.189 0.639,0.36 1.026,0.513c0.387,0.153 0.815,0.311 1.283,0.473c0.972,0.359 1.818,0.715 2.538,1.066c0.72,0.351 1.318,0.76 1.795,1.228c0.477,0.468 0.833,1.017 1.067,1.647c0.234,0.63 0.351,1.395 0.351,2.296c0,1.745 -0.612,3.1 -1.836,4.063c-1.224,0.963 -3.069,1.444 -5.535,1.445c-0.828,-0.001 -1.575,-0.05 -2.241,-0.149c-0.666,-0.099 -1.256,-0.221 -1.769,-0.364c-0.513,-0.145 -0.954,-0.297 -1.323,-0.459c-0.369,-0.162 -0.679,-0.316 -0.931,-0.459l1.188,-3.348c0.558,0.305 1.246,0.58 2.065,0.823c0.819,0.243 1.823,0.364 3.011,0.364Z" style="fill:#fff;fill-rule:nonzero;"/><path d="M178.239,21.938c-0.208,-0.651 -0.432,-1.319 -0.672,-2.004c-0.239,-0.685 -0.478,-1.367 -0.716,-2.046l-7.308,0c-0.236,0.682 -0.473,1.366 -0.71,2.052c-0.237,0.686 -0.458,1.352 -0.663,1.998l-4.374,0c0.704,-2.017 1.372,-3.88 2.004,-5.589c0.632,-1.711 1.25,-3.321 1.855,-4.833c0.605,-1.512 1.201,-2.948 1.787,-4.307c0.587,-1.359 1.197,-2.686 1.829,-3.982l3.992,0c0.615,1.296 1.221,2.623 1.818,3.982c0.597,1.359 1.198,2.795 1.804,4.307c0.605,1.512 1.225,3.122 1.858,4.833c0.632,1.709 1.301,3.572 2.007,5.589l-4.511,0Zm-5.061,-14.472c-0.094,0.271 -0.231,0.641 -0.412,1.109c-0.181,0.467 -0.387,1.008 -0.618,1.621c-0.231,0.613 -0.49,1.288 -0.775,2.025c-0.286,0.737 -0.576,1.51 -0.871,2.319l5.35,0c-0.286,-0.812 -0.563,-1.587 -0.832,-2.327c-0.268,-0.739 -0.523,-1.415 -0.765,-2.028c-0.241,-0.613 -0.453,-1.153 -0.635,-1.621c-0.183,-0.467 -0.33,-0.833 -0.442,-1.098Z" style="fill:#fff;fill-rule:nonzero;"/><path d="M187.991,21.938c-0.745,-1.572 -1.479,-3.203 -2.204,-4.893c-0.724,-1.691 -1.412,-3.363 -2.064,-5.017c-0.652,-1.655 -1.252,-3.238 -1.798,-4.751c-0.547,-1.513 -1.019,-2.863 -1.417,-4.05l4.644,0c0.35,1.083 0.739,2.249 1.168,3.498c0.429,1.249 0.866,2.494 1.311,3.735c0.444,1.24 0.87,2.429 1.278,3.565c0.407,1.136 0.797,2.118 1.17,2.945c0.352,-0.822 0.736,-1.801 1.153,-2.937c0.417,-1.136 0.848,-2.324 1.293,-3.565c0.444,-1.241 0.881,-2.485 1.309,-3.734c0.429,-1.249 0.819,-2.419 1.171,-3.507l4.484,0c-0.419,1.193 -0.901,2.544 -1.447,4.054c-0.545,1.51 -1.142,3.093 -1.79,4.749c-0.648,1.656 -1.332,3.33 -2.051,5.022c-0.72,1.692 -1.451,3.321 -2.193,4.886l-4.017,0Z" style="fill:#fff;fill-rule:nonzero;"/><path d="M201.892,21.938l0,-18.711l12.636,0l0,3.537l-8.424,0l0,3.672l7.479,0l0,3.456l-7.479,0l0,4.509l9.045,0l0,3.537l-13.257,0Z" style="fill:#fff;fill-rule:nonzero;"/><path d="M223.735,3.011c2.808,0 4.959,0.499 6.453,1.498c1.494,0.999 2.241,2.551 2.241,4.658c0,1.313 -0.302,2.38 -0.905,3.199c-0.603,0.819 -1.471,1.462 -2.605,1.931c0.378,0.467 0.774,1.003 1.188,1.606c0.414,0.603 0.823,1.233 1.228,1.89c0.405,0.657 0.797,1.341 1.175,2.052c0.378,0.711 0.729,1.408 1.053,2.093l-4.709,0c-0.343,-0.613 -0.691,-1.234 -1.043,-1.863c-0.352,-0.631 -0.714,-1.242 -1.084,-1.837c-0.371,-0.593 -0.736,-1.156 -1.098,-1.687c-0.361,-0.531 -0.723,-1.012 -1.084,-1.444l-2.079,0l0,6.831l-4.212,0l0,-18.442c0.918,-0.18 1.867,-0.306 2.848,-0.377c0.981,-0.073 1.859,-0.108 2.633,-0.108Zm0.243,3.591c-0.306,0 -0.581,0.008 -0.824,0.027c-0.243,0.017 -0.472,0.035 -0.688,0.054l0,5.076l1.188,-0.001c1.584,0 2.718,-0.198 3.402,-0.594c0.684,-0.396 1.026,-1.071 1.026,-2.025c0,-0.918 -0.347,-1.57 -1.04,-1.957c-0.693,-0.387 -1.714,-0.58 -3.064,-0.58Z" style="fill:#fff;fill-rule:nonzero;"/></g></g></svg>