<?xml version="1.0" encoding="UTF-8" standalone="no"?><!DOCTYPE svg PUBLIC "-//W3C//DTD SVG 1.1//EN" "http://www.w3.org/Graphics/SVG/1.1/DTD/svg11.dtd"><svg width="100%" height="100%" viewBox="0 0 599 101" version="1.1" xmlns="http://www.w3.org/2000/svg" xmlns:xlink="http://www.w3.org/1999/xlink" xml:space="preserve" xmlns:serif="http://www.serif.com/" style="fill-rule:evenodd;clip-rule:evenodd;stroke-linejoin:round;stroke-miterlimit:1.41421;"><g><g><path d="M321.381,24.146c-2.324,2.324 -2.324,6.141 0,8.465c2.323,2.323 6.141,2.323 8.464,0l12.697,-12.697l-8.465,-8.464l-12.696,12.696Z" style="fill:#002150;fill-rule:nonzero;"/><path d="M317.149,36.843c-4.643,-4.643 -4.643,-12.286 0,-16.929l8.464,-8.464l-10.58,-10.58c-1.16,-1.16 -3.073,-1.16 -4.232,0l-6.349,6.348l-6.348,-6.348c-1.159,-1.16 -3.072,-1.16 -4.232,0l-46.554,46.553c-3.483,3.483 -3.483,9.214 0,12.697l38.09,38.089c3.483,3.483 9.213,3.483 12.696,0l55.018,-55.018c1.16,-1.16 1.16,-3.072 0,-4.232l-10.58,-10.58l-8.465,8.464c-4.642,4.643 -12.286,4.643 -16.928,0Zm-65.598,19.045c-1.16,-1.16 -1.16,-3.073 0,-4.233l44.437,-44.437l4.232,4.232l-44.437,44.438c-1.16,1.159 -3.073,1.159 -4.232,0Z" style="fill:#002150;fill-rule:nonzero;"/></g><g><g><path d="M43.657,35.124l-4.752,10.949c-0.255,0.509 -0.934,0.594 -1.273,0.169l-8.403,-11.202c-0.339,-0.425 -0.933,-0.425 -1.273,0l-8.402,11.202c-0.339,0.425 -1.018,0.34 -1.273,-0.169l-4.753,-10.949c-0.254,-0.594 -0.763,-0.933 -1.442,-0.933l-10.524,0c-1.103,0 -1.867,1.103 -1.443,2.122l11.712,26.903l6.28,14.343c0.255,0.595 1.104,0.595 1.358,0l6.281,-14.343l2.122,-4.922c0.254,-0.594 1.188,-0.594 1.442,0l2.122,4.922l6.28,14.343c0.255,0.595 1.104,0.595 1.358,0l6.281,-14.343l11.627,-26.903c0.509,-1.019 -0.255,-2.122 -1.358,-2.122l-10.524,0c-0.594,0 -1.188,0.339 -1.443,0.933Z" style="fill:#002150;fill-rule:nonzero;"/><g><g><path d="M104.509,33.682l-9.591,0c-0.848,0 -1.612,0.679 -1.612,1.612l0,2.207c0,0.679 -0.849,1.018 -1.273,0.509c-1.698,-1.782 -5.262,-4.328 -11.543,-4.328c-12.645,0 -20.453,10.354 -20.453,22.999c0,12.731 7.808,23 20.453,23c6.026,0 9.761,-2.716 11.543,-4.498c0.509,-0.424 1.273,-0.085 1.273,0.594l0,1.782c0,0.934 0.764,1.613 1.612,1.613l9.591,0c0.848,0 1.527,-0.679 1.527,-1.613l0,-42.265c0,-0.933 -0.679,-1.612 -1.527,-1.612Zm-21.472,33.269c-5.687,0 -10.27,-4.583 -10.27,-10.27c0,-5.686 4.583,-10.269 10.27,-10.269c5.686,0 10.269,4.583 10.269,10.269c0,5.687 -4.583,10.27 -10.269,10.27Z" style="fill:#002150;fill-rule:nonzero;"/><path d="M113.081,12.464l0,65.18c0,0.849 0.678,1.528 1.527,1.528l9.675,0c0.849,0 1.528,-0.679 1.528,-1.528l0,-65.18c0,-0.849 -0.679,-1.527 -1.528,-1.527l-9.675,0c-0.849,0 -1.527,0.678 -1.527,1.527Z" style="fill:#002150;fill-rule:nonzero;"/><path d="M130.055,12.464l0,65.18c0,0.849 0.678,1.528 1.527,1.528l9.675,0c0.849,0 1.528,-0.679 1.528,-1.528l0,-65.18c0,-0.849 -0.679,-1.527 -1.528,-1.527l-9.675,0c-0.849,0 -1.527,0.678 -1.527,1.527Z" style="fill:#002150;fill-rule:nonzero;"/><path d="M179.449,62.962c-0.594,0 -1.273,0.424 -1.443,1.018c-0.764,2.207 -3.989,4.074 -7.978,4.074c-6.535,0 -9.505,-3.565 -9.845,-7.723c0,-0.424 0.34,-0.849 0.764,-0.849l30.469,0c0.848,0 1.527,-0.594 1.612,-1.443c0,-0.509 0,-0.933 0,-1.358c0,-13.239 -11.288,-23.933 -24.782,-22.914c-11.203,0.848 -20.284,9.929 -21.133,21.132c-1.018,13.495 9.676,24.782 22.915,24.782c9.76,0 18.078,-6.026 21.388,-14.597c0.424,-1.019 -0.34,-2.122 -1.443,-2.122l-10.524,0Zm-9.421,-18.417c5.008,0 8.827,3.734 9.336,7.129c0.085,0.509 -0.255,0.934 -0.679,0.934l-17.229,0c-0.509,0 -0.848,-0.425 -0.763,-0.934c0.509,-3.395 4.243,-7.129 9.335,-7.129Z" style="fill:#002150;fill-rule:nonzero;"/></g><path d="M223.836,34.191l-6.535,0c-0.848,0 -1.527,-0.679 -1.527,-1.528l0,-20.199c0,-0.849 -0.679,-1.527 -1.528,-1.527l-9.675,0c-0.849,0 -1.528,0.678 -1.528,1.527l0,20.199c0,0.849 -0.679,1.528 -1.528,1.528l-6.45,0c-0.848,0 -1.527,0.679 -1.527,1.528l0,8.317c0,0.849 0.679,1.527 1.527,1.527l6.45,0c0.849,0 1.528,0.679 1.528,1.528l0,30.553c0,0.849 0.679,1.528 1.528,1.528l9.675,0c0.849,0 1.528,-0.679 1.528,-1.528l0,-30.553c0,-0.849 0.679,-1.528 1.527,-1.528l6.535,0c0.849,0 1.528,-0.678 1.528,-1.527l0,-8.317c0,-0.849 -0.679,-1.528 -1.528,-1.528Z" style="fill:#002150;fill-rule:nonzero;"/></g></g><g><path d="M390.172,79.681c8.403,0 15.277,-6.789 15.277,-15.192c0,-9.929 -8.317,-12.73 -12.73,-14.173c-4.414,-1.443 -4.499,-1.697 -4.499,-2.97c0,-1.104 0.849,-2.037 1.952,-2.037c0.679,-0.085 1.189,0.254 1.528,0.679c0.424,0.424 1.019,0.594 1.528,0.509l9.675,-2.546c0.849,-0.255 1.358,-1.188 1.018,-2.037c-2.461,-6.28 -8.911,-10.269 -15.87,-9.251c-8.233,1.188 -13.749,9.251 -12.391,17.483c1.442,8.403 8.911,10.864 13.07,12.222c1.273,0.424 3.394,1.103 3.904,1.612c0,0.085 0.085,0.255 0.085,0.425c0,1.018 -0.595,1.952 -1.528,2.376c-1.188,0.509 -2.461,0 -3.055,-0.934c-0.34,-0.509 -1.019,-0.763 -1.613,-0.594l-9.675,2.037c-0.849,0.17 -1.443,1.104 -1.103,1.952c2.036,6.111 7.808,10.439 14.427,10.439Z" style="fill:#002150;fill-rule:nonzero;"/><g><path d="M457.135,33.682l-9.591,0c-0.848,0 -1.612,0.679 -1.612,1.612l0,2.207c0,0.679 -0.849,1.018 -1.273,0.509c-1.698,-1.782 -5.262,-4.328 -11.543,-4.328c-12.645,0 -20.453,10.354 -20.453,22.999c0,12.731 7.808,23 20.453,23c6.026,0 9.761,-2.716 11.543,-4.498c0.509,-0.424 1.273,-0.085 1.273,0.594l0,1.782c0,0.934 0.764,1.613 1.612,1.613l9.591,0c0.848,0 1.527,-0.679 1.527,-1.613l0,-42.265c0,-0.933 -0.679,-1.612 -1.527,-1.612Zm-21.472,33.269c-5.687,0 -10.27,-4.583 -10.27,-10.27c0,-5.686 4.583,-10.269 10.27,-10.269c5.686,0 10.269,4.583 10.269,10.269c0,5.687 -4.583,10.27 -10.269,10.27Z" style="fill:#002150;fill-rule:nonzero;"/><g><path d="M488.536,35.209l-4.583,13.07c-0.255,0.679 -1.273,0.679 -1.443,0l-4.668,-13.07c-0.169,-0.594 -0.764,-1.018 -1.443,-1.018l-10.439,0c-1.103,0 -1.867,1.103 -1.442,2.122l11.712,26.903l6.28,14.343c0.255,0.595 1.103,0.595 1.358,0l6.28,-14.343l11.712,-26.903c0.425,-1.019 -0.339,-2.122 -1.442,-2.122l-10.439,0c-0.679,0 -1.189,0.424 -1.443,1.018Z" style="fill:#002150;fill-rule:nonzero;"/><path d="M511.451,29.014c4.328,0 7.893,-3.565 7.893,-7.978c0,-4.413 -3.565,-7.978 -7.893,-7.978c-4.413,0 -7.978,3.565 -7.978,7.978c0,4.413 3.565,7.978 7.978,7.978Zm4.752,5.177l-9.59,0c-0.849,0 -1.527,0.679 -1.527,1.612l0,41.756c0,0.934 0.678,1.613 1.527,1.613l9.59,0c0.849,0 1.613,-0.679 1.613,-1.613l0,-41.756c0,-0.933 -0.764,-1.612 -1.613,-1.612Z" style="fill:#002150;fill-rule:nonzero;"/><path d="M545.229,79.681c12.731,0 23,-10.269 23,-23c0,-12.645 -10.269,-22.999 -23,-22.999c-12.646,0 -23,10.354 -23,22.999c0,12.731 10.354,23 23,23Zm0,-33.269c5.686,0 10.269,4.583 10.269,10.269c0,5.687 -4.583,10.27 -10.269,10.27c-5.686,0 -10.269,-4.583 -10.269,-10.27c0,-5.686 4.583,-10.269 10.269,-10.269Z" style="fill:#002150;fill-rule:nonzero;"/></g><path d="M596.915,33.851c-4.753,0.51 -7.638,2.631 -9.166,4.159c-0.424,0.509 -1.273,0.17 -1.273,-0.509l0,-1.782c0,-0.849 -0.679,-1.528 -1.528,-1.528l-9.675,0c-0.849,0 -1.528,0.679 -1.528,1.528l0,41.925c0,0.849 0.679,1.528 1.528,1.528l9.675,0c0.849,0 1.528,-0.679 1.528,-1.528l0,-3.904l0,-17.059c0,-5.686 4.583,-10.269 10.269,-10.269c0.085,0 0.255,0 0.34,0c0.848,0 1.612,-0.679 1.612,-1.527l0,-9.591c0,-0.848 -0.848,-1.612 -1.782,-1.443Z" style="fill:#002150;fill-rule:nonzero;"/></g></g></g></g></svg>