<?xml version="1.0" encoding="UTF-8" standalone="no"?>
<!DOCTYPE svg PUBLIC "-//W3C//DTD SVG 1.1//EN" "http://www.w3.org/Graphics/SVG/1.1/DTD/svg11.dtd">
<svg width="100%" height="100%" viewBox="0 0 613 101" version="1.1" xmlns="http://www.w3.org/2000/svg" xmlns:xlink="http://www.w3.org/1999/xlink" xml:space="preserve" xmlns:serif="http://www.serif.com/" style="fill-rule:evenodd;clip-rule:evenodd;stroke-linejoin:round;stroke-miterlimit:1.41421;">
    <g transform="matrix(1,0,0,1,-262.192,-227.304)">
        <g>
            <g transform="matrix(4.23214,-4.23214,4.23214,4.23214,500.786,272.612)">
                <path d="M13,8C12.451,8 12,8.451 12,9C12,9.549 12.451,10 13,10L16,10L16,8L13,8Z" style="fill:rgb(0,33,80);fill-rule:nonzero;"/>
                <path d="M11,9C11,7.903 11.903,7 13,7L15,7L15,4.5C15,4.226 14.774,4 14.5,4L13,4L13,2.5C13,2.226 12.774,2 12.5,2L1.5,2C0.677,2 0,2.677 0,3.5L0,12.5C0,13.323 0.677,14 1.5,14L14.5,14C14.774,14 15,13.774 15,13.5L15,11L13,11C11.903,11 11,10.097 11,9ZM1,3.5C1,3.226 1.226,3 1.5,3L12,3L12,4L1.5,4C1.226,4 1,3.774 1,3.5Z" style="fill:rgb(0,33,80);fill-rule:nonzero;"/>
            </g>
            <g transform="matrix(1.23,0,0,1.23,-124.5,-68.345)">
                <g transform="matrix(1,0,0,1,13.9756,-55.8256)">
                    <text x="303.816px" y="360.558px" style="font-family:'AnaheimGothic', 'Anaheim Gothic';font-size:69px;fill:rgb(0,33,80);">w<tspan x="349.218px 395.172px 411.801px 428.43px 470.037px " y="360.558px 360.558px 360.558px 360.558px 360.558px ">allet</tspan></text>
                </g>
                <g transform="matrix(1,0,0,1,316.464,-55.8256)">
                    <text x="303.816px" y="360.558px" style="font-family:'AnaheimGothic', 'Anaheim Gothic';font-size:69px;fill:rgb(0,33,80);">s<tspan x="333.417px 378.336px 412.905px 430.983px 475.005px " y="360.558px 360.558px 360.558px 360.558px 360.558px ">avior</tspan></text>
                </g>
            </g>
        </g>
    </g>
</svg>
